<svg width="1224" height="1584" version="1.1" xmlns="http://www.w3.org/2000/svg" desc="Created with imagetracer.js version 1.2.6" ><path fill="rgb(108,51,82)" stroke="rgb(108,51,82)" stroke-width="1" opacity="1" d="M 147 75 L 261 75 L 261 186 L 147 186 L 147 75 Z M 158 168 L 155 172 L 156 174 L 162 177 L 163 177 L 157 173 L 159 169 Q 163 168 164 171 L 164 170 Q 163 167 158 168 Z M 178 168 L 177 184 L 178 184 L 178 168 Z M 189 168 L 189 184 L 191 184 L 192 173 L 196 183 L 199 184 L 205 173 L 205 184 L 206 184 L 206 168 L 198 182 L 191 170 Q 192 167 189 168 Z M 225 168 L 221 175 L 222 177 L 225 171 L 225 173 L 226 173 L 225 168 Z M 244 168 L 242 170 L 242 184 L 250 184 L 251 182 L 249 183 L 244 183 L 244 169 L 249 169 L 244 168 Z M 250 169 L 253 173 L 253 172 L 250 169 Z M 227 173 L 227 177 Q 228 181 223 179 L 220 178 L 221 180 L 228 180 L 229 184 L 231 184 L 227 173 Z M 254 173 L 252 181 L 254 180 L 254 173 Z M 164 177 L 164 181 Q 163 184 157 183 L 157 184 Q 164 186 165 182 Q 166 178 164 177 Z M 220 180 L 218 184 L 220 183 L 220 180 Z " /><path fill="rgb(108,51,82)" stroke="rgb(108,51,82)" stroke-width="1" opacity="1" d="M 148 277 L 156.5 277 L 157 278.5 L 170.5 300 Q 172.8 300.8 172 298.5 L 185.5 277 L 192.5 277 L 193 277.5 L 193 317 L 184 317 L 184 295.5 L 183 295.5 L 172.5 313 Q 167.1 314.9 168 311.5 L 157.5 296 L 157 317 L 148.5 317 L 148 316.5 L 148 277 Z " /><path fill="rgb(108,51,82)" stroke="rgb(108,51,82)" stroke-width="1" opacity="1" d="M 202 277 L 231.5 277 L 232 277.5 L 232 285 L 212.5 285 L 211 286.5 L 211 293 L 230 293 L 230 299.5 L 228.5 301 L 211 301 L 211 309 L 233 309 L 233 317 L 202 317 L 202 277 Z " /><path fill="rgb(108,51,82)" stroke="rgb(108,51,82)" stroke-width="1" opacity="1" d="M 239 277 L 268.5 277 L 270 278.5 Q 270.8 284.8 269.5 285 L 249 285 L 249 293 L 267 293 L 267 301 L 249 301 L 249 309 L 270 309 L 270 317 L 239 317 L 239 277 Z " /><path fill="rgb(108,51,82)" stroke="rgb(108,51,82)" stroke-width="1" opacity="1" d="M 273.5 277 L 306.5 277 L 307 277.5 L 307 285 L 295 285 L 295 316.5 L 294.5 317 L 285 317 L 285 285 L 272 285 L 272 278.5 L 273.5 277 Z " /><path fill="rgb(108,51,82)" stroke="rgb(108,51,82)" stroke-width="1" opacity="1" d="M 312 277 L 320.5 277 L 321 277.5 L 321 317 L 312.5 317 L 312 316.5 L 312 277 Z " /><path fill="rgb(108,51,82)" stroke="rgb(108,51,82)" stroke-width="1" opacity="1" d="M 330 277 Q 338.8 275 341 280.5 L 356.5 300 L 357 277 L 365.5 277 L 366 277.5 L 366 317 Q 357.2 319 355 313.5 L 340.5 295 L 339 295.5 L 339 317 L 330 317 L 330 277 Z " /><path fill="rgb(108,51,82)" stroke="rgb(108,51,82)" stroke-width="1" opacity="1" d="M 388.5 277 Q 405.6 274.4 411 283.5 Q 411.8 285.8 409.5 285 L 404.5 289 Q 401.4 283.6 391.5 285 L 385 289.5 L 382 297.5 Q 383.1 304.9 388.5 308 Q 392 310.5 399.5 309 L 402 306.5 L 402 296 L 410 296 L 410 310.5 L 411 313 Q 404.4 317.7 392.5 318 L 384.5 316 L 377 310.5 Q 371.2 304.8 373 291.5 Q 375.1 283.6 381.5 280 L 388.5 277 Z " /><path fill="rgb(108,51,82)" stroke="rgb(108,51,82)" stroke-width="1" opacity="1" d="M 434 277 L 441.5 277 L 444 279.5 L 456.5 301 L 471.5 277 L 478.5 277 L 479 277.5 L 479 317 L 470 317 L 470 295.5 L 469 295.5 L 458.5 313 Q 454 314 453 311.5 L 443.5 296 L 443 317 L 434.5 317 L 434 316.5 L 434 277 Z " /><path fill="rgb(108,51,82)" stroke="rgb(108,51,82)" stroke-width="1" opacity="1" d="M 488 277 L 496.5 277 L 497 277.5 L 497 317 L 488.5 317 L 488 316.5 L 488 277 Z " /><path fill="rgb(108,51,82)" stroke="rgb(108,51,82)" stroke-width="1" opacity="1" d="M 506 277 L 513.5 277 L 519 282.5 L 532.5 300 L 533 277 L 542.5 277 L 543 277.5 L 543 317 L 534.5 317 L 533 315.5 L 516.5 295 L 516 317 L 506.5 317 L 506 316.5 L 506 277 Z " /><path fill="rgb(108,51,82)" stroke="rgb(108,51,82)" stroke-width="1" opacity="1" d="M 551 277 L 561 277 L 561 303.5 L 565.5 309 Q 575.3 310.8 577 304.5 L 578 277 L 586.5 277 L 587 277.5 L 587 304.5 Q 585.4 311.5 580.5 315 L 576.5 317 L 567.5 318 Q 566.3 315.8 561.5 317 L 555 312.5 L 551 304.5 L 551 277 Z " /><path fill="rgb(108,51,82)" stroke="rgb(108,51,82)" stroke-width="1" opacity="1" d="M 590 277 L 624.5 277 L 625 277.5 L 625 285 L 612 285 L 612 316.5 L 611.5 317 L 603 317 L 603 285.5 L 602.5 285 L 590 285 L 590 277 Z " /><path fill="rgb(108,51,82)" stroke="rgb(108,51,82)" stroke-width="1" opacity="1" d="M 629 277 L 658.5 277 L 659 277.5 L 659 285 L 639 285 L 639 293 L 657 293 L 657 301 L 639 301 L 639 309 L 660 309 L 660 317 L 629 317 L 629 277 Z " /><path fill="rgb(108,51,82)" stroke="rgb(108,51,82)" stroke-width="1" opacity="1" d="M 674.5 277 L 688.5 277 L 695 280.5 L 693 287 L 680.5 284 L 675 286.5 L 674 289.5 L 677.5 292 L 689.5 295 L 696 300.5 L 697 307.5 L 691.5 315 L 687.5 317 L 677.5 318 L 664 314 Q 663.4 308.7 667.5 306 Q 672.8 310.2 682.5 310 L 687 307.5 Q 687.8 303.8 685.5 303 L 673.5 300 L 665 293.5 Q 663 283 668.5 280 L 674.5 277 Z " /><path fill="rgb(108,51,82)" stroke="rgb(108,51,82)" stroke-width="1" opacity="1" d="M 939.5 343 L 947.5 343 L 948 343.5 L 948 385 L 938.5 385 L 938 384.5 L 938 344.5 L 939.5 343 Z " /><path fill="rgb(108,51,82)" stroke="rgb(108,51,82)" stroke-width="1" opacity="1" d="M 156.5 345 L 170.5 345 L 177 348.5 L 173.5 355 L 162.5 352 L 158.5 353 L 156 355.5 L 157.5 359 L 173.5 364 L 177 367.5 Q 179.3 370.7 178 377.5 L 173.5 383 Q 168.1 386.1 159.5 386 L 150.5 384 L 145 380.5 L 148 374 L 158.5 378 L 164.5 378 L 169 374.5 L 166.5 371 L 152.5 367 L 147 362.5 L 146 354.5 L 151.5 347 L 156.5 345 Z " /><path fill="rgb(108,51,82)" stroke="rgb(108,51,82)" stroke-width="1" opacity="1" d="M 184 345 L 193.5 345 L 194 345.5 L 194 385 L 184.5 385 L 184 384.5 L 184 345 Z " /><path fill="rgb(108,51,82)" stroke="rgb(108,51,82)" stroke-width="1" opacity="1" d="M 202 345 L 210.5 345 L 211 346.5 L 224.5 368 Q 226.8 368.8 226 366.5 L 239.5 345 L 246.5 345 L 247 345.5 L 247 385 L 238 385 L 238 363.5 L 237 363.5 L 226.5 381 Q 221.1 382.9 222 379.5 L 211.5 364 L 211 385 L 202.5 385 L 202 384.5 L 202 345 Z " /><path fill="rgb(108,51,82)" stroke="rgb(108,51,82)" stroke-width="1" opacity="1" d="M 268 345 L 277.5 345 L 278 346.5 L 295 385 L 285.5 385 L 285 383.5 L 282 377 L 264.5 377 L 263 378.5 L 261 385 L 251.5 385 L 251 383.5 L 268 345 Z M 273 356 L 267 369 L 278 369 L 273 356 Z " /><path fill="rgb(108,51,82)" stroke="rgb(108,51,82)" stroke-width="1" opacity="1" d="M 299 345 L 319.5 345 L 327.5 347 L 334 351.5 Q 339.3 356.7 339 367.5 L 337 374.5 L 331.5 381 L 321.5 385 L 299 385 L 299 345 Z M 309 353 L 309 377 Q 320 379 326 374 L 329 369 L 328 360 Q 323 351 309 353 Z " /><path fill="rgb(108,51,82)" stroke="rgb(108,51,82)" stroke-width="1" opacity="1" d="M 361 345 L 390.5 345 L 391 345.5 L 391 353 L 371.5 353 L 370 354.5 L 370 361 L 389 361 L 389 367.5 L 387.5 369 L 370 369 L 370 377 L 392 377 L 392 385 L 361 385 L 361 345 Z " /><path fill="rgb(108,51,82)" stroke="rgb(108,51,82)" stroke-width="1" opacity="1" d="M 395 345 L 404.5 345 L 408 348.5 L 413 357 Q 415.7 358.1 415 355.5 L 422 345 L 433 345.5 L 420 363.5 L 420 365.5 L 434 384.5 L 422 385 L 413.5 372 L 404.5 385 L 394.5 385 L 394 383.5 L 408 364.5 L 396 348.5 L 395 345 Z " /><path fill="rgb(108,51,82)" stroke="rgb(108,51,82)" stroke-width="1" opacity="1" d="M 437 345 L 466.5 345 L 467 345.5 L 467 353 L 447 353 L 447 361 L 465 361 L 465 369 L 447 369 L 447 377 L 468 377 L 468 385 L 437 385 L 437 345 Z " /><path fill="rgb(108,51,82)" stroke="rgb(108,51,82)" stroke-width="1" opacity="1" d="M 487.5 345 Q 504.6 342.4 510 351.5 L 508.5 354 L 503.5 357 Q 500.4 351.6 490.5 353 L 485 356 L 482 361.5 L 482 368.5 L 486.5 375 Q 489.8 378.2 497.5 377 L 504.5 373 L 510 377 L 505.5 383 Q 500.1 386.1 491.5 386 Q 480.2 384.3 475 376.5 L 472 368.5 L 472 361.5 Q 473.9 352.4 480.5 348 L 487.5 345 Z " /><path fill="rgb(108,51,82)" stroke="rgb(108,51,82)" stroke-width="1" opacity="1" d="M 515 345 L 524 345 L 524 369.5 L 527.5 376 L 535.5 377 L 540 373.5 L 541 370.5 L 541 345 L 549.5 345 L 551 346.5 L 551 368.5 Q 548.8 369.8 550 374.5 L 543.5 383 L 539.5 385 L 530.5 386 L 521.5 383 L 517 378.5 L 515 374.5 L 515 345 Z " /><path fill="rgb(108,51,82)" stroke="rgb(108,51,82)" stroke-width="1" opacity="1" d="M 554 345 L 587.5 345 L 588 345.5 L 588 353 L 576 353 L 576 384.5 L 575.5 385 L 566 385 L 566 353.5 L 565.5 353 L 554 353 L 554 345 Z " /><path fill="rgb(108,51,82)" stroke="rgb(108,51,82)" stroke-width="1" opacity="1" d="M 593 345 L 601.5 345 L 603 346.5 L 603 383.5 L 601.5 385 L 593.5 385 L 593 384.5 L 593 345 Z " /><path fill="rgb(108,51,82)" stroke="rgb(108,51,82)" stroke-width="1" opacity="1" d="M 605.5 345 L 615.5 345 L 616 346.5 L 627.5 372 L 639.5 345 L 647.5 345 L 648 347.5 L 632 385 L 622.5 385 L 621 383.5 L 605.5 345 Z " /><path fill="rgb(108,51,82)" stroke="rgb(108,51,82)" stroke-width="1" opacity="1" d="M 651 345 L 680.5 345 L 682 346.5 Q 682.8 352.8 681.5 353 L 661 353 L 661 361 L 679 361 L 679 369 L 661 369 L 661 377 L 682 377 L 682 385 L 651 385 L 651 345 Z " /><path fill="rgb(108,51,82)" stroke="rgb(108,51,82)" stroke-width="1" opacity="1" d="M 717.5 345 Q 734.6 342.4 740 351.5 L 738.5 354 L 733.5 357 Q 730.4 351.6 720.5 353 L 715 356 L 712 361.5 L 712 368.5 L 716.5 375 Q 719.8 378.2 727.5 377 L 734.5 373 L 740 377 L 735.5 383 Q 730.1 386.1 721.5 386 Q 710.2 384.3 705 376.5 L 702 368.5 L 702 361.5 Q 703.9 352.4 710.5 348 L 717.5 345 Z " /><path fill="rgb(108,51,82)" stroke="rgb(108,51,82)" stroke-width="1" opacity="1" d="M 756.5 345 Q 774 342.5 780 351.5 L 784 358.5 L 785 366.5 L 781 377.5 L 777.5 381 Q 771.8 385.8 761.5 386 Q 760.3 383.8 755.5 385 L 749.5 382 L 744 376.5 L 741 368.5 L 741 361.5 Q 742.7 353.2 748.5 349 L 756.5 345 Z M 760 353 L 754 356 L 751 362 Q 750 370 754 374 L 760 377 L 767 377 L 772 374 L 775 368 Q 776 361 773 359 Q 771 351 760 353 Z " /><path fill="rgb(108,51,82)" stroke="rgb(108,51,82)" stroke-width="1" opacity="1" d="M 791 345 L 800 345 L 800 369.5 L 803.5 376 L 811.5 377 L 816 373.5 L 817 370.5 L 817 345 L 825.5 345 L 827 346.5 L 827 368.5 Q 824.7 369.8 826 374.5 L 819.5 383 L 815.5 385 L 806.5 386 L 797.5 383 L 793 378.5 L 791 374.5 L 791 345 Z " /><path fill="rgb(108,51,82)" stroke="rgb(108,51,82)" stroke-width="1" opacity="1" d="M 835 345 Q 843.8 343 846 348.5 L 861.5 368 L 862 345 L 870.5 345 L 871 345.5 L 871 385 Q 862.2 387 860 381.5 L 845.5 363 L 844 363.5 L 844 385 L 835 385 L 835 345 Z " /><path fill="rgb(108,51,82)" stroke="rgb(108,51,82)" stroke-width="1" opacity="1" d="M 892.5 345 Q 910 342.5 916 351.5 L 910.5 357 L 908.5 357 Q 905.7 351.8 896.5 353 L 890 357.5 L 887 365.5 Q 888.1 372.9 893.5 376 Q 896.7 378.3 903.5 377 L 908.5 373 L 910.5 373 L 916 378.5 L 912.5 382 L 906.5 385 L 897.5 386 L 889.5 384 L 882 378.5 Q 876.2 372.8 878 359.5 Q 880.4 350.9 887.5 347 L 892.5 345 Z " /><path fill="rgb(108,51,82)" stroke="rgb(108,51,82)" stroke-width="1" opacity="1" d="M 921 345 L 929.5 345 L 930 345.5 L 930 385 L 921.5 385 L 921 384.5 L 921 345 Z " /><path fill="rgb(108,51,82)" stroke="rgb(108,51,82)" stroke-width="1" opacity="1" d="M 316 466 L 319 466 L 319 478.5 L 320.5 479 Q 323.3 475.3 329.5 475 Q 336.1 475.9 339 480.5 Q 341.6 483.4 341 489.5 Q 339.5 496 334.5 499 L 326.5 500 L 319 496 Q 320.9 501.6 316 500 L 316 466 Z M 327 478 L 320 484 Q 319 490 321 494 L 326 497 L 334 496 L 336 494 L 338 488 L 337 484 Q 335 478 327 478 Z " /><path fill="rgb(108,51,82)" stroke="rgb(108,51,82)" stroke-width="1" opacity="1" d="M 472 466 L 475 466.5 L 475 478.5 L 477.5 477 L 484.5 475 L 492 478.5 L 494 483.5 L 494 500 L 491 499.5 L 491 485.5 L 489 480 L 481.5 478 L 477 480 L 475 483.5 L 475 500 L 472 499.5 L 472 466 Z " /><path fill="rgb(108,51,82)" stroke="rgb(108,51,82)" stroke-width="1" opacity="1" d="M 530.5 467 Q 537.8 466.7 541 470.5 L 543 476.5 L 541 482.5 L 527 496.5 L 544 497 L 543.5 500 L 522 500 L 522 496.5 L 529.5 489 L 537 482.5 Q 539.7 480.2 539 474.5 L 538 472 Q 535.7 469.4 529.5 470 L 522.5 474 L 521 471.5 L 525.5 468 L 530.5 467 Z " /><path fill="rgb(108,51,82)" stroke="rgb(108,51,82)" stroke-width="1" opacity="1" d="M 560.5 467 Q 568 467.5 571 472.5 L 574 480.5 L 574 486.5 L 572 493.5 L 566.5 499 L 558.5 500 Q 552.4 498.6 550 493.5 L 548 486.5 L 548 480.5 Q 549.2 472.7 554.5 469 L 560.5 467 Z M 560 470 L 556 472 L 552 478 Q 553 482 551 484 L 554 494 L 559 497 L 566 496 L 570 490 L 570 478 L 569 476 Q 567 470 560 470 Z " /><path fill="rgb(108,51,82)" stroke="rgb(108,51,82)" stroke-width="1" opacity="1" d="M 586.5 467 L 594.5 468 L 598 471.5 L 599 479.5 L 584 495.5 L 584 497 L 600.5 497 L 601 500 L 578.5 500 L 578 497.5 L 594 481.5 L 596 475.5 L 592.5 471 L 586.5 470 L 579.5 474 Q 575 472 578.5 470 L 586.5 467 Z " /><path fill="rgb(108,51,82)" stroke="rgb(108,51,82)" stroke-width="1" opacity="1" d="M 149 468 L 167.5 468 Q 174.7 469.8 178 475.5 L 180 483.5 Q 177.7 484.7 179 489.5 L 174.5 496 Q 165.3 502 149 500 L 149 468 Z M 153 470 L 153 497 Q 165 499 172 494 L 176 488 L 176 480 L 173 474 L 168 471 L 153 470 Z " /><path fill="rgb(108,51,82)" stroke="rgb(108,51,82)" stroke-width="1" opacity="1" d="M 402 468 L 411.5 468 L 412 468.5 L 412 500 L 409 499.5 L 409 470.5 L 408.5 470 L 402 470 L 402 468 Z " /><path fill="rgb(108,51,82)" stroke="rgb(108,51,82)" stroke-width="1" opacity="1" d="M 436.5 468 L 440 468.5 L 425 488 L 438 488 L 438 481 L 441 481 L 441 488 L 447 488 L 447 491 Q 442.4 489.8 441 492.5 L 441 500 L 438 500 L 438 492.5 L 436.5 491 L 420.5 491 L 420 488.5 L 436.5 468 Z " /><path fill="rgb(108,51,82)" stroke="rgb(108,51,82)" stroke-width="1" opacity="1" d="M 619.5 468 L 623 468.5 L 608 487.5 L 621 488 L 621 481 L 624 481 L 624 488 L 631 488 L 631 491 Q 625.6 489.5 624 492.5 L 624 500 L 621 500 L 621 491 L 603.5 491 L 603 488.5 L 619.5 468 Z " /><path fill="rgb(108,51,82)" stroke="rgb(108,51,82)" stroke-width="1" opacity="1" d="M 453 470 L 457 471.5 L 457 476 L 463.5 476 L 464 478 L 457 478 L 457 496 L 462.5 497 L 465 496 Q 466.5 499.7 463.5 499 L 458.5 500 L 454 496.5 L 453 493.5 L 453 478 Q 447.8 479.7 449 476 L 453 476 L 453 470 Z " /><path fill="rgb(108,51,82)" stroke="rgb(108,51,82)" stroke-width="1" opacity="1" d="M 195.5 475 Q 203 475.5 206 480.5 L 208 487.5 L 206.5 489 L 187 489.5 L 191.5 496 L 199.5 497 L 204.5 494 L 206 496.5 Q 202.6 501.1 193.5 500 Q 187.4 498.6 185 493.5 L 184 485.5 Q 185.3 479.8 189.5 477 L 195.5 475 Z M 195 478 L 192 479 L 187 486 L 204 486 L 203 482 Q 201 478 195 478 Z " /><path fill="rgb(108,51,82)" stroke="rgb(108,51,82)" stroke-width="1" opacity="1" d="M 223.5 475 L 229.5 476 L 233 478 L 231.5 482 Q 229.9 477.1 222.5 478 L 217 481.5 Q 214.3 483.8 215 489.5 L 219.5 496 L 226.5 497 L 232.5 494 Q 236 496 231.5 498 Q 228.5 501 221.5 500 L 215 497 L 212 491.5 L 212 484.5 L 217.5 477 L 223.5 475 Z " /><path fill="rgb(108,51,82)" stroke="rgb(108,51,82)" stroke-width="1" opacity="1" d="M 248.5 475 Q 256.8 475.8 260 481.5 L 261 489 L 241.5 489 L 241 491.5 L 243 495 Q 245.6 497.7 252.5 497 L 257.5 494 L 259 496.5 Q 255.9 501.4 246.5 500 L 239 494.5 L 237 487.5 L 239 480.5 L 242.5 477 L 248.5 475 Z M 248 478 L 244 480 L 241 486 L 258 486 L 257 483 Q 255 477 248 478 Z " /><path fill="rgb(108,51,82)" stroke="rgb(108,51,82)" stroke-width="1" opacity="1" d="M 279.5 475 L 285.5 477 L 288.5 480 Q 291.4 475.4 298.5 475 L 302.5 476 L 306 479.5 L 307 481.5 L 307 500 L 304 499.5 L 304 482.5 Q 301.9 478.1 295.5 478 L 290 482.5 L 289 484.5 L 289 500 L 286 499.5 L 286 483.5 L 282.5 479 L 277.5 478 L 272 481.5 L 271 483.5 L 271 500 L 268 499.5 L 268 476 Q 272.1 474.3 271 478.5 L 273.5 477 L 279.5 475 Z " /><path fill="rgb(108,51,82)" stroke="rgb(108,51,82)" stroke-width="1" opacity="1" d="M 356.5 475 Q 364 475.5 367 480.5 L 369 487.5 L 367.5 489 L 348 489.5 L 352.5 496 L 360.5 497 L 365.5 494 L 367 496.5 Q 363.6 501.1 354.5 500 Q 348.4 498.6 346 493.5 L 345 485.5 Q 346.3 479.8 350.5 477 L 356.5 475 Z M 356 478 L 353 479 L 348 486 L 365 486 L 364 482 Q 362 478 356 478 Z " /><path fill="rgb(108,51,82)" stroke="rgb(108,51,82)" stroke-width="1" opacity="1" d="M 375 476 Q 379.1 474.3 378 478.5 L 379.5 478 Q 381.8 475 387 476 Q 388.8 480.5 383.5 479 L 380 481.5 Q 376.7 488.9 378 500 L 375 499.5 L 375 476 Z " /><path fill="rgb(108,51,82)" stroke="rgb(108,51,82)" stroke-width="1" opacity="1" d="M 501 495 L 505 496.5 L 505 500.5 L 503 506 Q 500 507.3 501 503.5 L 502 499.5 L 501 495 Z " /><path fill="rgb(254,254,254)" stroke="rgb(254,254,254)" stroke-width="1" opacity="1" d="M 157.5 168 Q 162.8 166.8 164 169.5 L 163.5 171 Q 162.8 168.3 158.5 169 L 157 172.5 L 165 178.5 Q 165.8 183.3 162.5 184 Q 155.5 185.5 154 181.5 L 156.5 183 Q 162.8 184.3 164 180.5 L 163 177 L 156 173.5 L 155 171.5 L 157.5 168 Z " /><path fill="rgb(254,254,254)" stroke="rgb(254,254,254)" stroke-width="1" opacity="1" d="M 177.5 168 L 178 183.5 L 177 183.5 L 177.5 168 Z " /><path fill="rgb(254,254,254)" stroke="rgb(254,254,254)" stroke-width="1" opacity="1" d="M 189 168 Q 191.7 166.9 191 169.5 L 197.5 182 L 205.5 168 L 206 183.5 L 205 183.5 L 204.5 173 L 199 184 L 196 182.5 L 191.5 173 L 191 184 L 189 183.5 L 189 168 Z " /><path fill="rgb(254,254,254)" stroke="rgb(254,254,254)" stroke-width="1" opacity="1" d="M 224.5 168 L 231 183.5 L 229 184 L 227.5 180 L 220.5 180 L 220 182.5 L 218 183.5 L 222 171.5 L 224.5 168 Z M 225 171 L 221 178 Q 222 180 227 179 L 225 171 Z " /><path fill="rgb(254,254,254)" stroke="rgb(254,254,254)" stroke-width="1" opacity="1" d="M 243.5 168 Q 251.1 166.9 253 171.5 L 254 179.5 Q 251.7 186 242 184 L 242 169.5 L 243.5 168 Z M 244 169 L 244 183 L 251 182 Q 254 180 253 174 Q 251 168 244 169 Z " /><path fill="rgb(254,254,254)" stroke="rgb(254,254,254)" stroke-width="1" opacity="1" d="M 389.5 276 L 400 276.5 L 389.5 277 L 389.5 276 Z " /><path fill="rgb(254,254,254)" stroke="rgb(254,254,254)" stroke-width="1" opacity="1" d="M 675.5 276 L 687 276.5 L 675.5 277 L 675.5 276 Z " /><path fill="rgb(254,254,254)" stroke="rgb(254,254,254)" stroke-width="1" opacity="1" d="M 184.5 277 L 184 278.5 L 182.5 281 L 183 279.5 L 184.5 277 Z " /><path fill="rgb(254,254,254)" stroke="rgb(254,254,254)" stroke-width="1" opacity="1" d="M 193.5 277 L 194 316.5 L 193 316.5 L 193.5 277 Z " /><path fill="rgb(254,254,254)" stroke="rgb(254,254,254)" stroke-width="1" opacity="1" d="M 201.5 277 L 202 316.5 L 201 316.5 L 201.5 277 Z " /><path fill="rgb(254,254,254)" stroke="rgb(254,254,254)" stroke-width="1" opacity="1" d="M 232.5 277 L 233 286 L 212.5 286 L 212 286.5 L 212 292 L 230 292.5 L 211 293 L 211 286.5 L 212.5 285 L 232 285 L 232.5 277 Z " /><path fill="rgb(254,254,254)" stroke="rgb(254,254,254)" stroke-width="1" opacity="1" d="M 307.5 277 L 308 284.5 L 306.5 286 L 295.5 286 L 295.5 285 L 307 285 L 307.5 277 Z " /><path fill="rgb(254,254,254)" stroke="rgb(254,254,254)" stroke-width="1" opacity="1" d="M 311.5 277 L 312 316.5 L 311 316.5 L 311.5 277 Z " /><path fill="rgb(254,254,254)" stroke="rgb(254,254,254)" stroke-width="1" opacity="1" d="M 321.5 277 L 322 316.5 L 321 316.5 L 321.5 277 Z " /><path fill="rgb(254,254,254)" stroke="rgb(254,254,254)" stroke-width="1" opacity="1" d="M 329.5 277 L 330 316.5 L 329 316.5 L 329.5 277 Z " /><path fill="rgb(254,254,254)" stroke="rgb(254,254,254)" stroke-width="1" opacity="1" d="M 338.5 277 L 340.5 280 L 338.5 277 Z " /><path fill="rgb(254,254,254)" stroke="rgb(254,254,254)" stroke-width="1" opacity="1" d="M 356.5 277 L 357 299.5 L 355 298.5 L 356 297.5 L 356.5 277 Z " /><path fill="rgb(254,254,254)" stroke="rgb(254,254,254)" stroke-width="1" opacity="1" d="M 366.5 277 L 367 316.5 L 366 316.5 L 366.5 277 Z " /><path fill="rgb(254,254,254)" stroke="rgb(254,254,254)" stroke-width="1" opacity="1" d="M 385.5 277 L 388 277.5 Q 379.4 279.4 375.5 286 L 381.5 279 L 385.5 277 Z " /><path fill="rgb(254,254,254)" stroke="rgb(254,254,254)" stroke-width="1" opacity="1" d="M 442.5 277 L 443.5 279 L 442.5 277 Z " /><path fill="rgb(254,254,254)" stroke="rgb(254,254,254)" stroke-width="1" opacity="1" d="M 470.5 277 L 469.5 279 L 470.5 277 Z " /><path fill="rgb(254,254,254)" stroke="rgb(254,254,254)" stroke-width="1" opacity="1" d="M 487.5 277 L 488 316.5 L 487 316.5 L 487.5 277 Z " /><path fill="rgb(254,254,254)" stroke="rgb(254,254,254)" stroke-width="1" opacity="1" d="M 497.5 277 L 498 316.5 L 497 316.5 L 497.5 277 Z " /><path fill="rgb(254,254,254)" stroke="rgb(254,254,254)" stroke-width="1" opacity="1" d="M 514.5 277 L 518.5 282 L 514.5 277 Z " /><path fill="rgb(254,254,254)" stroke="rgb(254,254,254)" stroke-width="1" opacity="1" d="M 577.5 277 L 578 298.5 L 577 298.5 L 577.5 277 Z " /><path fill="rgb(254,254,254)" stroke="rgb(254,254,254)" stroke-width="1" opacity="1" d="M 587.5 277 L 588 301.5 L 587 301.5 L 587.5 277 Z " /><path fill="rgb(254,254,254)" stroke="rgb(254,254,254)" stroke-width="1" opacity="1" d="M 659.5 277 L 660 286 L 639 285.5 L 659 285 L 659.5 277 Z " /><path fill="rgb(254,254,254)" stroke="rgb(254,254,254)" stroke-width="1" opacity="1" d="M 157.5 278 L 160 281.5 L 158 280.5 L 157.5 278 Z " /><path fill="rgb(254,254,254)" stroke="rgb(254,254,254)" stroke-width="1" opacity="1" d="M 405.5 278 L 412 283.5 L 411.5 285 L 407.5 280 L 405.5 278 Z " /><path fill="rgb(254,254,254)" stroke="rgb(254,254,254)" stroke-width="1" opacity="1" d="M 670.5 278 L 669.5 280 L 666.5 282 L 668.5 279 L 670.5 278 Z " /><path fill="rgb(254,254,254)" stroke="rgb(254,254,254)" stroke-width="1" opacity="1" d="M 692.5 278 L 696 279 L 694.5 284 L 694 282.5 L 695 280.5 L 692.5 278 Z " /><path fill="rgb(254,254,254)" stroke="rgb(254,254,254)" stroke-width="1" opacity="1" d="M 444.5 280 L 447 283.5 L 445 282.5 L 444.5 280 Z " /><path fill="rgb(254,254,254)" stroke="rgb(254,254,254)" stroke-width="1" opacity="1" d="M 468.5 280 L 468 281.5 L 466.5 284 L 467 282.5 L 468.5 280 Z " /><path fill="rgb(254,254,254)" stroke="rgb(254,254,254)" stroke-width="1" opacity="1" d="M 341.5 281 L 345.5 286 L 341.5 281 Z " /><path fill="rgb(254,254,254)" stroke="rgb(254,254,254)" stroke-width="1" opacity="1" d="M 160.5 283 L 163 286.5 L 161 285.5 L 160.5 283 Z " /><path fill="rgb(254,254,254)" stroke="rgb(254,254,254)" stroke-width="1" opacity="1" d="M 519.5 283 L 522.5 287 L 519.5 283 Z " /><path fill="rgb(254,254,254)" stroke="rgb(254,254,254)" stroke-width="1" opacity="1" d="M 180.5 284 L 179.5 286 L 180.5 284 Z " /><path fill="rgb(254,254,254)" stroke="rgb(254,254,254)" stroke-width="1" opacity="1" d="M 249.5 285 L 270 285.5 L 249.5 286 L 249.5 285 Z " /><path fill="rgb(254,254,254)" stroke="rgb(254,254,254)" stroke-width="1" opacity="1" d="M 272.5 285 L 285 285 L 285 316.5 L 284 316.5 L 284 286 L 272.5 286 L 272.5 285 Z " /><path fill="rgb(254,254,254)" stroke="rgb(254,254,254)" stroke-width="1" opacity="1" d="M 391.5 285 L 394 285.5 L 391.5 286 L 391.5 285 Z " /><path fill="rgb(254,254,254)" stroke="rgb(254,254,254)" stroke-width="1" opacity="1" d="M 396.5 285 L 399 285.5 L 396.5 286 L 396.5 285 Z " /><path fill="rgb(254,254,254)" stroke="rgb(254,254,254)" stroke-width="1" opacity="1" d="M 409.5 285 L 405.5 290 L 402 287.5 L 404.5 289 L 409.5 285 Z " /><path fill="rgb(254,254,254)" stroke="rgb(254,254,254)" stroke-width="1" opacity="1" d="M 447.5 285 L 450 288.5 L 448 287.5 L 447.5 285 Z " /><path fill="rgb(254,254,254)" stroke="rgb(254,254,254)" stroke-width="1" opacity="1" d="M 465.5 285 L 465 286.5 L 463.5 289 L 464 287.5 L 465.5 285 Z " /><path fill="rgb(254,254,254)" stroke="rgb(254,254,254)" stroke-width="1" opacity="1" d="M 590.5 285 L 603 285 L 603 316.5 L 602 316.5 L 602 286 L 590.5 286 L 590.5 285 Z " /><path fill="rgb(254,254,254)" stroke="rgb(254,254,254)" stroke-width="1" opacity="1" d="M 612 285 L 625 285.5 L 613 286 L 612.5 317 L 612 285 Z " /><path fill="rgb(254,254,254)" stroke="rgb(254,254,254)" stroke-width="1" opacity="1" d="M 664.5 285 L 665 292.5 L 664 292.5 L 664.5 285 Z " /><path fill="rgb(254,254,254)" stroke="rgb(254,254,254)" stroke-width="1" opacity="1" d="M 676.5 285 L 678 285.5 L 675.5 287 L 676.5 285 Z " /><path fill="rgb(254,254,254)" stroke="rgb(254,254,254)" stroke-width="1" opacity="1" d="M 693.5 285 L 694 286.5 L 691.5 288 L 691.5 287 Q 694 287.7 693.5 285 Z " /><path fill="rgb(254,254,254)" stroke="rgb(254,254,254)" stroke-width="1" opacity="1" d="M 346.5 287 L 349.5 291 L 346.5 287 Z " /><path fill="rgb(254,254,254)" stroke="rgb(254,254,254)" stroke-width="1" opacity="1" d="M 387.5 287 L 385.5 290 L 387.5 287 Z " /><path fill="rgb(254,254,254)" stroke="rgb(254,254,254)" stroke-width="1" opacity="1" d="M 163.5 288 L 166 291.5 L 164 290.5 L 163.5 288 Z " /><path fill="rgb(254,254,254)" stroke="rgb(254,254,254)" stroke-width="1" opacity="1" d="M 523.5 288 L 527.5 293 L 523.5 288 Z " /><path fill="rgb(254,254,254)" stroke="rgb(254,254,254)" stroke-width="1" opacity="1" d="M 674.5 288 L 676 290.5 L 674 289.5 L 674.5 288 Z " /><path fill="rgb(254,254,254)" stroke="rgb(254,254,254)" stroke-width="1" opacity="1" d="M 177.5 289 L 177 290.5 L 175.5 293 L 176 291.5 L 177.5 289 Z " /><path fill="rgb(254,254,254)" stroke="rgb(254,254,254)" stroke-width="1" opacity="1" d="M 450.5 290 L 453 293.5 L 451 292.5 L 450.5 290 Z " /><path fill="rgb(254,254,254)" stroke="rgb(254,254,254)" stroke-width="1" opacity="1" d="M 384.5 291 L 384 292.5 L 383.5 294 L 383 292.5 L 384.5 291 Z " /><path fill="rgb(254,254,254)" stroke="rgb(254,254,254)" stroke-width="1" opacity="1" d="M 249.5 292 L 266.5 292 L 268 293.5 L 267.5 301 L 267 293 L 249.5 293 L 249.5 292 Z " /><path fill="rgb(254,254,254)" stroke="rgb(254,254,254)" stroke-width="1" opacity="1" d="M 350.5 292 L 354.5 297 L 350.5 292 Z " /><path fill="rgb(254,254,254)" stroke="rgb(254,254,254)" stroke-width="1" opacity="1" d="M 461.5 292 L 460.5 294 L 461.5 292 Z " /><path fill="rgb(254,254,254)" stroke="rgb(254,254,254)" stroke-width="1" opacity="1" d="M 639.5 292 L 657 292.5 L 639.5 293 L 639.5 292 Z " /><path fill="rgb(254,254,254)" stroke="rgb(254,254,254)" stroke-width="1" opacity="1" d="M 166.5 293 L 169 296.5 L 167 295.5 L 166.5 293 Z " /><path fill="rgb(254,254,254)" stroke="rgb(254,254,254)" stroke-width="1" opacity="1" d="M 372.5 293 L 373 301.5 L 372 301.5 L 372.5 293 Z " /><path fill="rgb(254,254,254)" stroke="rgb(254,254,254)" stroke-width="1" opacity="1" d="M 174.5 294 L 174 295.5 L 172.5 298 L 173 296.5 L 174.5 294 Z " /><path fill="rgb(254,254,254)" stroke="rgb(254,254,254)" stroke-width="1" opacity="1" d="M 528.5 294 L 531.5 298 L 528.5 294 Z " /><path fill="rgb(254,254,254)" stroke="rgb(254,254,254)" stroke-width="1" opacity="1" d="M 665.5 294 L 671 298.5 L 669.5 299 L 665.5 294 Z " /><path fill="rgb(254,254,254)" stroke="rgb(254,254,254)" stroke-width="1" opacity="1" d="M 183.5 295 L 184 309.5 L 183 309.5 L 183 298.5 L 182 297.5 L 183.5 295 Z " /><path fill="rgb(254,254,254)" stroke="rgb(254,254,254)" stroke-width="1" opacity="1" d="M 339 295 L 342 296.5 L 346 301.5 L 341 297.5 L 340.5 296 L 339.5 317 L 339 295 Z " /><path fill="rgb(254,254,254)" stroke="rgb(254,254,254)" stroke-width="1" opacity="1" d="M 453.5 295 L 456 298.5 L 454 297.5 L 453.5 295 Z " /><path fill="rgb(254,254,254)" stroke="rgb(254,254,254)" stroke-width="1" opacity="1" d="M 469.5 295 L 470 316.5 L 469 316.5 L 468.5 298 L 467 298.5 L 469.5 295 Z " /><path fill="rgb(254,254,254)" stroke="rgb(254,254,254)" stroke-width="1" opacity="1" d="M 516.5 295 L 518.5 298 L 516.5 295 Z " /><path fill="rgb(254,254,254)" stroke="rgb(254,254,254)" stroke-width="1" opacity="1" d="M 157.5 296 L 161 300.5 L 159 299.5 L 158.5 298 L 157.5 317 L 157.5 296 Z " /><path fill="rgb(254,254,254)" stroke="rgb(254,254,254)" stroke-width="1" opacity="1" d="M 401.5 296 L 402 306.5 Q 401.5 309.5 397.5 309 L 397.5 308 L 401 306.5 L 401.5 296 Z " /><path fill="rgb(254,254,254)" stroke="rgb(254,254,254)" stroke-width="1" opacity="1" d="M 410.5 296 L 411 310.5 L 410 310.5 L 410.5 296 Z " /><path fill="rgb(254,254,254)" stroke="rgb(254,254,254)" stroke-width="1" opacity="1" d="M 443.5 296 Q 446.3 297.3 444 298.5 L 443.5 317 L 443.5 296 Z " /><path fill="rgb(254,254,254)" stroke="rgb(254,254,254)" stroke-width="1" opacity="1" d="M 692.5 296 L 697 301.5 L 696 301.5 L 692.5 296 Z " /><path fill="rgb(254,254,254)" stroke="rgb(254,254,254)" stroke-width="1" opacity="1" d="M 458.5 297 L 458 298.5 L 456.5 301 L 457 299.5 L 458.5 297 Z " /><path fill="rgb(254,254,254)" stroke="rgb(254,254,254)" stroke-width="1" opacity="1" d="M 169.5 298 L 172 299.5 L 170.5 300 L 169.5 298 Z " /><path fill="rgb(254,254,254)" stroke="rgb(254,254,254)" stroke-width="1" opacity="1" d="M 181.5 299 L 181 300.5 L 179.5 303 L 180 301.5 L 181.5 299 Z " /><path fill="rgb(254,254,254)" stroke="rgb(254,254,254)" stroke-width="1" opacity="1" d="M 445.5 299 L 448 302.5 L 446 301.5 L 445.5 299 Z " /><path fill="rgb(254,254,254)" stroke="rgb(254,254,254)" stroke-width="1" opacity="1" d="M 519.5 299 L 528 308.5 L 523 304.5 L 519.5 299 Z " /><path fill="rgb(254,254,254)" stroke="rgb(254,254,254)" stroke-width="1" opacity="1" d="M 383.5 300 L 389 307.5 L 384 303.5 L 383.5 300 Z " /><path fill="rgb(254,254,254)" stroke="rgb(254,254,254)" stroke-width="1" opacity="1" d="M 211.5 301 L 212 308.5 L 211 308.5 L 211.5 301 Z " /><path fill="rgb(254,254,254)" stroke="rgb(254,254,254)" stroke-width="1" opacity="1" d="M 561.5 301 L 562 303.5 L 561 303.5 L 561.5 301 Z " /><path fill="rgb(254,254,254)" stroke="rgb(254,254,254)" stroke-width="1" opacity="1" d="M 161.5 302 L 162.5 304 L 161.5 302 Z " /><path fill="rgb(254,254,254)" stroke="rgb(254,254,254)" stroke-width="1" opacity="1" d="M 465.5 302 L 464.5 304 L 465.5 302 Z " /><path fill="rgb(254,254,254)" stroke="rgb(254,254,254)" stroke-width="1" opacity="1" d="M 682.5 302 L 687 304.5 L 685.5 304 Q 681.8 303.8 682.5 302 Z " /><path fill="rgb(254,254,254)" stroke="rgb(254,254,254)" stroke-width="1" opacity="1" d="M 346.5 303 L 350.5 308 L 346.5 303 Z " /><path fill="rgb(254,254,254)" stroke="rgb(254,254,254)" stroke-width="1" opacity="1" d="M 576.5 303 L 577 304.5 L 575 305.5 L 576.5 303 Z " /><path fill="rgb(254,254,254)" stroke="rgb(254,254,254)" stroke-width="1" opacity="1" d="M 178.5 304 L 178 305.5 L 176.5 308 L 177 306.5 L 178.5 304 Z " /><path fill="rgb(254,254,254)" stroke="rgb(254,254,254)" stroke-width="1" opacity="1" d="M 448.5 304 L 451 307.5 L 449 306.5 L 448.5 304 Z " /><path fill="rgb(254,254,254)" stroke="rgb(254,254,254)" stroke-width="1" opacity="1" d="M 562.5 305 L 568 308.5 L 565.5 309 L 562.5 305 Z " /><path fill="rgb(254,254,254)" stroke="rgb(254,254,254)" stroke-width="1" opacity="1" d="M 666 305 L 668 305.5 L 664.5 311 L 664 309.5 L 666 305 Z " /><path fill="rgb(254,254,254)" stroke="rgb(254,254,254)" stroke-width="1" opacity="1" d="M 686.5 306 L 687 307.5 L 684.5 309 L 684.5 308 Q 687 308.7 686.5 306 Z " /><path fill="rgb(254,254,254)" stroke="rgb(254,254,254)" stroke-width="1" opacity="1" d="M 164.5 307 L 165.5 309 L 164.5 307 Z " /><path fill="rgb(254,254,254)" stroke="rgb(254,254,254)" stroke-width="1" opacity="1" d="M 462.5 307 L 462 308.5 L 460.5 311 L 461 309.5 L 462.5 307 Z " /><path fill="rgb(254,254,254)" stroke="rgb(254,254,254)" stroke-width="1" opacity="1" d="M 573.5 307 L 572.5 309 L 571 308.5 L 573.5 307 Z " /><path fill="rgb(254,254,254)" stroke="rgb(254,254,254)" stroke-width="1" opacity="1" d="M 375.5 308 L 376.5 310 L 375.5 308 Z " /><path fill="rgb(254,254,254)" stroke="rgb(254,254,254)" stroke-width="1" opacity="1" d="M 585.5 308 L 586 309.5 L 584 310.5 L 585.5 308 Z " /><path fill="rgb(254,254,254)" stroke="rgb(254,254,254)" stroke-width="1" opacity="1" d="M 175.5 309 L 175 310.5 L 173.5 313 L 174 311.5 L 175.5 309 Z " /><path fill="rgb(254,254,254)" stroke="rgb(254,254,254)" stroke-width="1" opacity="1" d="M 270.5 309 L 271 316.5 L 270 316.5 L 270.5 309 Z " /><path fill="rgb(254,254,254)" stroke="rgb(254,254,254)" stroke-width="1" opacity="1" d="M 351.5 309 L 354.5 313 L 351.5 309 Z " /><path fill="rgb(254,254,254)" stroke="rgb(254,254,254)" stroke-width="1" opacity="1" d="M 451.5 309 L 452.5 311 L 451.5 309 Z " /><path fill="rgb(254,254,254)" stroke="rgb(254,254,254)" stroke-width="1" opacity="1" d="M 660.5 309 L 661 316.5 L 660 316.5 L 660.5 309 Z " /><path fill="rgb(254,254,254)" stroke="rgb(254,254,254)" stroke-width="1" opacity="1" d="M 677.5 309 L 683 309.5 L 677.5 310 L 677.5 309 Z " /><path fill="rgb(254,254,254)" stroke="rgb(254,254,254)" stroke-width="1" opacity="1" d="M 166.5 310 L 168 312.5 L 167 312.5 L 166.5 310 Z " /><path fill="rgb(254,254,254)" stroke="rgb(254,254,254)" stroke-width="1" opacity="1" d="M 528.5 310 L 532.5 315 L 528.5 310 Z " /><path fill="rgb(254,254,254)" stroke="rgb(254,254,254)" stroke-width="1" opacity="1" d="M 553.5 310 L 556 313.5 L 554 312.5 L 553.5 310 Z " /><path fill="rgb(254,254,254)" stroke="rgb(254,254,254)" stroke-width="1" opacity="1" d="M 377.5 311 L 378.5 313 L 377.5 311 Z " /><path fill="rgb(254,254,254)" stroke="rgb(254,254,254)" stroke-width="1" opacity="1" d="M 695.5 311 L 691.5 316 L 688.5 317 L 688.5 316 L 695.5 311 Z " /><path fill="rgb(254,254,254)" stroke="rgb(254,254,254)" stroke-width="1" opacity="1" d="M 583.5 312 L 581.5 315 L 583.5 312 Z " /><path fill="rgb(254,254,254)" stroke="rgb(254,254,254)" stroke-width="1" opacity="1" d="M 380.5 313 L 381.5 315 L 380.5 313 Z " /><path fill="rgb(254,254,254)" stroke="rgb(254,254,254)" stroke-width="1" opacity="1" d="M 409.5 313 L 408.5 315 L 409.5 313 Z " /><path fill="rgb(254,254,254)" stroke="rgb(254,254,254)" stroke-width="1" opacity="1" d="M 355.5 314 L 357.5 317 L 355.5 314 Z " /><path fill="rgb(254,254,254)" stroke="rgb(254,254,254)" stroke-width="1" opacity="1" d="M 557.5 314 L 558.5 316 L 557.5 314 Z " /><path fill="rgb(254,254,254)" stroke="rgb(254,254,254)" stroke-width="1" opacity="1" d="M 388.5 317 L 392 317.5 L 388.5 318 L 388.5 317 Z " /><path fill="rgb(254,254,254)" stroke="rgb(254,254,254)" stroke-width="1" opacity="1" d="M 397.5 317 L 401 317.5 L 397.5 318 L 397.5 317 Z " /><path fill="rgb(254,254,254)" stroke="rgb(254,254,254)" stroke-width="1" opacity="1" d="M 563.5 317 L 567 317.5 L 563.5 318 L 563.5 317 Z " /><path fill="rgb(254,254,254)" stroke="rgb(254,254,254)" stroke-width="1" opacity="1" d="M 572.5 317 L 575 317.5 L 572.5 318 L 572.5 317 Z " /><path fill="rgb(254,254,254)" stroke="rgb(254,254,254)" stroke-width="1" opacity="1" d="M 673.5 317 L 677 317.5 L 673.5 318 L 673.5 317 Z " /><path fill="rgb(254,254,254)" stroke="rgb(254,254,254)" stroke-width="1" opacity="1" d="M 682.5 317 L 687 317.5 L 682.5 318 L 682.5 317 Z " /><path fill="rgb(254,254,254)" stroke="rgb(254,254,254)" stroke-width="1" opacity="1" d="M 939.5 342 L 948 342.5 L 939.5 343 L 938.5 344 L 939.5 342 Z " /><path fill="rgb(254,254,254)" stroke="rgb(254,254,254)" stroke-width="1" opacity="1" d="M 157.5 344 L 169 344.5 L 157.5 345 L 157.5 344 Z " /><path fill="rgb(254,254,254)" stroke="rgb(254,254,254)" stroke-width="1" opacity="1" d="M 488.5 344 L 499 344.5 L 488.5 345 L 488.5 344 Z " /><path fill="rgb(254,254,254)" stroke="rgb(254,254,254)" stroke-width="1" opacity="1" d="M 718.5 344 L 729 344.5 L 718.5 345 L 718.5 344 Z " /><path fill="rgb(254,254,254)" stroke="rgb(254,254,254)" stroke-width="1" opacity="1" d="M 757.5 344 L 768 344.5 L 757.5 345 L 757.5 344 Z " /><path fill="rgb(254,254,254)" stroke="rgb(254,254,254)" stroke-width="1" opacity="1" d="M 894.5 344 L 905 344.5 L 894.5 345 L 894.5 344 Z " /><path fill="rgb(254,254,254)" stroke="rgb(254,254,254)" stroke-width="1" opacity="1" d="M 238.5 345 L 238 346.5 L 236.5 349 L 237 347.5 L 238.5 345 Z " /><path fill="rgb(254,254,254)" stroke="rgb(254,254,254)" stroke-width="1" opacity="1" d="M 247.5 345 L 248 384.5 L 247 384.5 L 247.5 345 Z " /><path fill="rgb(254,254,254)" stroke="rgb(254,254,254)" stroke-width="1" opacity="1" d="M 267.5 345 L 268 346.5 L 266.5 349 L 266 347.5 L 267.5 345 Z " /><path fill="rgb(254,254,254)" stroke="rgb(254,254,254)" stroke-width="1" opacity="1" d="M 298.5 345 L 299 384.5 L 298 384.5 L 298.5 345 Z " /><path fill="rgb(254,254,254)" stroke="rgb(254,254,254)" stroke-width="1" opacity="1" d="M 320.5 345 L 324 345.5 L 320.5 346 L 320.5 345 Z " /><path fill="rgb(254,254,254)" stroke="rgb(254,254,254)" stroke-width="1" opacity="1" d="M 360.5 345 L 361 384.5 L 360 384.5 L 360.5 345 Z " /><path fill="rgb(254,254,254)" stroke="rgb(254,254,254)" stroke-width="1" opacity="1" d="M 391.5 345 L 392 354 L 371.5 354 L 371 354.5 L 371 360 L 389 360.5 L 370 361 L 370 354.5 L 371.5 353 L 391 353 L 391.5 345 Z " /><path fill="rgb(254,254,254)" stroke="rgb(254,254,254)" stroke-width="1" opacity="1" d="M 394.5 345 L 398 350.5 L 395 348.5 L 394.5 345 Z " /><path fill="rgb(254,254,254)" stroke="rgb(254,254,254)" stroke-width="1" opacity="1" d="M 405.5 345 L 407.5 348 L 405.5 345 Z " /><path fill="rgb(254,254,254)" stroke="rgb(254,254,254)" stroke-width="1" opacity="1" d="M 421.5 345 L 422 346.5 L 419 348.5 L 421.5 345 Z " /><path fill="rgb(254,254,254)" stroke="rgb(254,254,254)" stroke-width="1" opacity="1" d="M 467.5 345 L 468 354 L 447 353.5 L 467 353 L 467.5 345 Z " /><path fill="rgb(254,254,254)" stroke="rgb(254,254,254)" stroke-width="1" opacity="1" d="M 514.5 345 L 515 372.5 L 514 372.5 L 514.5 345 Z " /><path fill="rgb(254,254,254)" stroke="rgb(254,254,254)" stroke-width="1" opacity="1" d="M 524.5 345 L 525 369.5 L 524 369.5 L 524.5 345 Z " /><path fill="rgb(254,254,254)" stroke="rgb(254,254,254)" stroke-width="1" opacity="1" d="M 553.5 345 L 554 353 L 566 353.5 L 553 354 L 553.5 345 Z " /><path fill="rgb(254,254,254)" stroke="rgb(254,254,254)" stroke-width="1" opacity="1" d="M 588.5 345 L 589 352.5 L 587.5 354 L 576.5 354 L 576.5 353 L 588 353 L 588.5 345 Z " /><path fill="rgb(254,254,254)" stroke="rgb(254,254,254)" stroke-width="1" opacity="1" d="M 592.5 345 L 593 384.5 L 592 384.5 L 592.5 345 Z " /><path fill="rgb(254,254,254)" stroke="rgb(254,254,254)" stroke-width="1" opacity="1" d="M 648.5 345 L 649 347.5 L 647.5 350 L 647 348.5 L 648.5 345 Z " /><path fill="rgb(254,254,254)" stroke="rgb(254,254,254)" stroke-width="1" opacity="1" d="M 790.5 345 L 791 372.5 L 790 372.5 L 790.5 345 Z " /><path fill="rgb(254,254,254)" stroke="rgb(254,254,254)" stroke-width="1" opacity="1" d="M 800.5 345 L 801 369.5 L 800 369.5 L 800.5 345 Z " /><path fill="rgb(254,254,254)" stroke="rgb(254,254,254)" stroke-width="1" opacity="1" d="M 834.5 345 L 835 384.5 L 834 384.5 L 834.5 345 Z " /><path fill="rgb(254,254,254)" stroke="rgb(254,254,254)" stroke-width="1" opacity="1" d="M 843.5 345 L 845.5 348 L 843.5 345 Z " /><path fill="rgb(254,254,254)" stroke="rgb(254,254,254)" stroke-width="1" opacity="1" d="M 861.5 345 L 862 367.5 L 860 366.5 L 861 365.5 L 861.5 345 Z " /><path fill="rgb(254,254,254)" stroke="rgb(254,254,254)" stroke-width="1" opacity="1" d="M 871.5 345 L 872 384.5 L 871 384.5 L 871.5 345 Z " /><path fill="rgb(254,254,254)" stroke="rgb(254,254,254)" stroke-width="1" opacity="1" d="M 890.5 345 L 892 345.5 L 888.5 347 L 888.5 346 L 890.5 345 Z " /><path fill="rgb(254,254,254)" stroke="rgb(254,254,254)" stroke-width="1" opacity="1" d="M 920.5 345 L 921 384.5 L 920 384.5 L 920.5 345 Z " /><path fill="rgb(254,254,254)" stroke="rgb(254,254,254)" stroke-width="1" opacity="1" d="M 930.5 345 L 931 384.5 L 930 384.5 L 930.5 345 Z " /><path fill="rgb(254,254,254)" stroke="rgb(254,254,254)" stroke-width="1" opacity="1" d="M 211.5 346 L 214 349.5 L 212 348.5 L 211.5 346 Z " /><path fill="rgb(254,254,254)" stroke="rgb(254,254,254)" stroke-width="1" opacity="1" d="M 504.5 346 L 511 351.5 L 509.5 354 L 510 352.5 L 506.5 348 L 504.5 346 Z " /><path fill="rgb(254,254,254)" stroke="rgb(254,254,254)" stroke-width="1" opacity="1" d="M 734.5 346 L 741 351.5 L 739.5 354 L 740 352.5 L 736.5 348 L 734.5 346 Z " /><path fill="rgb(254,254,254)" stroke="rgb(254,254,254)" stroke-width="1" opacity="1" d="M 150.5 347 L 147.5 351 L 150.5 347 Z " /><path fill="rgb(254,254,254)" stroke="rgb(254,254,254)" stroke-width="1" opacity="1" d="M 637.5 347 L 638 348.5 L 636.5 351 L 636 349.5 L 637.5 347 Z " /><path fill="rgb(254,254,254)" stroke="rgb(254,254,254)" stroke-width="1" opacity="1" d="M 750.5 347 L 749.5 349 L 750.5 347 Z " /><path fill="rgb(254,254,254)" stroke="rgb(254,254,254)" stroke-width="1" opacity="1" d="M 775.5 347 L 780 350.5 L 778.5 350 L 775.5 347 Z " /><path fill="rgb(254,254,254)" stroke="rgb(254,254,254)" stroke-width="1" opacity="1" d="M 886.5 347 L 880.5 354 L 886.5 347 Z " /><path fill="rgb(254,254,254)" stroke="rgb(254,254,254)" stroke-width="1" opacity="1" d="M 911.5 347 L 912.5 349 L 911.5 347 Z " /><path fill="rgb(254,254,254)" stroke="rgb(254,254,254)" stroke-width="1" opacity="1" d="M 330.5 348 L 331.5 350 L 330.5 348 Z " /><path fill="rgb(254,254,254)" stroke="rgb(254,254,254)" stroke-width="1" opacity="1" d="M 431.5 348 L 430.5 350 L 431.5 348 Z " /><path fill="rgb(254,254,254)" stroke="rgb(254,254,254)" stroke-width="1" opacity="1" d="M 479.5 348 L 476 352.5 L 474.5 355 L 475 353.5 L 479.5 348 Z " /><path fill="rgb(254,254,254)" stroke="rgb(254,254,254)" stroke-width="1" opacity="1" d="M 617.5 348 L 619 351.5 L 618 351.5 L 617.5 348 Z " /><path fill="rgb(254,254,254)" stroke="rgb(254,254,254)" stroke-width="1" opacity="1" d="M 709.5 348 L 706 352.5 L 704.5 355 L 705 353.5 L 709.5 348 Z " /><path fill="rgb(254,254,254)" stroke="rgb(254,254,254)" stroke-width="1" opacity="1" d="M 408.5 349 L 409.5 351 L 408.5 349 Z " /><path fill="rgb(254,254,254)" stroke="rgb(254,254,254)" stroke-width="1" opacity="1" d="M 747.5 349 L 745 352.5 L 743.5 355 L 744 353.5 L 747.5 349 Z " /><path fill="rgb(254,254,254)" stroke="rgb(254,254,254)" stroke-width="1" opacity="1" d="M 846.5 349 L 850.5 354 L 846.5 349 Z " /><path fill="rgb(254,254,254)" stroke="rgb(254,254,254)" stroke-width="1" opacity="1" d="M 914.5 349 L 915.5 351 L 914.5 349 Z " /><path fill="rgb(254,254,254)" stroke="rgb(254,254,254)" stroke-width="1" opacity="1" d="M 418.5 350 L 417.5 352 L 418.5 350 Z " /><path fill="rgb(254,254,254)" stroke="rgb(254,254,254)" stroke-width="1" opacity="1" d="M 214.5 351 L 217 354.5 L 215 353.5 L 214.5 351 Z " /><path fill="rgb(254,254,254)" stroke="rgb(254,254,254)" stroke-width="1" opacity="1" d="M 429.5 351 L 427.5 354 L 429.5 351 Z " /><path fill="rgb(254,254,254)" stroke="rgb(254,254,254)" stroke-width="1" opacity="1" d="M 607.5 351 L 609 354.5 L 608 354.5 L 607.5 351 Z " /><path fill="rgb(254,254,254)" stroke="rgb(254,254,254)" stroke-width="1" opacity="1" d="M 234.5 352 L 233.5 354 L 234.5 352 Z " /><path fill="rgb(254,254,254)" stroke="rgb(254,254,254)" stroke-width="1" opacity="1" d="M 281.5 352 L 283 355.5 L 282 355.5 L 281.5 352 Z " /><path fill="rgb(254,254,254)" stroke="rgb(254,254,254)" stroke-width="1" opacity="1" d="M 334.5 352 L 336.5 355 L 334.5 352 Z " /><path fill="rgb(254,254,254)" stroke="rgb(254,254,254)" stroke-width="1" opacity="1" d="M 398.5 352 L 403 357.5 L 400 355.5 L 398.5 352 Z " /><path fill="rgb(254,254,254)" stroke="rgb(254,254,254)" stroke-width="1" opacity="1" d="M 410.5 352 L 412.5 355 L 410.5 352 Z " /><path fill="rgb(254,254,254)" stroke="rgb(254,254,254)" stroke-width="1" opacity="1" d="M 780.5 352 L 781.5 354 L 780.5 352 Z " /><path fill="rgb(254,254,254)" stroke="rgb(254,254,254)" stroke-width="1" opacity="1" d="M 915.5 352 L 910.5 358 L 904 354.5 L 905.5 354 Q 906 357.5 910.5 357 L 915.5 352 Z " /><path fill="rgb(254,254,254)" stroke="rgb(254,254,254)" stroke-width="1" opacity="1" d="M 166.5 353 L 169 353.5 L 166.5 354 L 166.5 353 Z " /><path fill="rgb(254,254,254)" stroke="rgb(254,254,254)" stroke-width="1" opacity="1" d="M 309.5 353 L 319 353.5 L 309.5 354 L 309.5 353 Z " /><path fill="rgb(254,254,254)" stroke="rgb(254,254,254)" stroke-width="1" opacity="1" d="M 416.5 353 L 415.5 355 L 416.5 353 Z " /><path fill="rgb(254,254,254)" stroke="rgb(254,254,254)" stroke-width="1" opacity="1" d="M 490.5 353 L 493 353.5 L 490.5 354 L 490.5 353 Z " /><path fill="rgb(254,254,254)" stroke="rgb(254,254,254)" stroke-width="1" opacity="1" d="M 495.5 353 L 498 353.5 L 495.5 354 L 495.5 353 Z " /><path fill="rgb(254,254,254)" stroke="rgb(254,254,254)" stroke-width="1" opacity="1" d="M 645.5 353 L 646 354.5 L 644.5 357 L 644 355.5 L 645.5 353 Z " /><path fill="rgb(254,254,254)" stroke="rgb(254,254,254)" stroke-width="1" opacity="1" d="M 661.5 353 L 682 353.5 L 661.5 354 L 661.5 353 Z " /><path fill="rgb(254,254,254)" stroke="rgb(254,254,254)" stroke-width="1" opacity="1" d="M 720.5 353 L 723 353.5 L 720.5 354 L 720.5 353 Z " /><path fill="rgb(254,254,254)" stroke="rgb(254,254,254)" stroke-width="1" opacity="1" d="M 725.5 353 L 728 353.5 L 725.5 354 L 725.5 353 Z " /><path fill="rgb(254,254,254)" stroke="rgb(254,254,254)" stroke-width="1" opacity="1" d="M 759.5 353 L 762 353.5 L 759.5 354 L 759.5 353 Z " /><path fill="rgb(254,254,254)" stroke="rgb(254,254,254)" stroke-width="1" opacity="1" d="M 764.5 353 Q 770.9 353.7 773 358.5 L 768.5 355 L 764.5 354 L 764.5 353 Z " /><path fill="rgb(254,254,254)" stroke="rgb(254,254,254)" stroke-width="1" opacity="1" d="M 174.5 354 L 175 356 L 172 355.5 L 174.5 354 Z " /><path fill="rgb(254,254,254)" stroke="rgb(254,254,254)" stroke-width="1" opacity="1" d="M 263.5 354 L 264 355.5 L 262.5 358 L 262 356.5 L 263.5 354 Z " /><path fill="rgb(254,254,254)" stroke="rgb(254,254,254)" stroke-width="1" opacity="1" d="M 488.5 354 L 487.5 356 L 488.5 354 Z " /><path fill="rgb(254,254,254)" stroke="rgb(254,254,254)" stroke-width="1" opacity="1" d="M 499.5 354 L 504.5 357 L 508 354.5 L 503.5 358 L 499.5 354 Z " /><path fill="rgb(254,254,254)" stroke="rgb(254,254,254)" stroke-width="1" opacity="1" d="M 634.5 354 L 635 355.5 L 633.5 358 L 633 356.5 L 634.5 354 Z " /><path fill="rgb(254,254,254)" stroke="rgb(254,254,254)" stroke-width="1" opacity="1" d="M 718.5 354 L 717.5 356 L 718.5 354 Z " /><path fill="rgb(254,254,254)" stroke="rgb(254,254,254)" stroke-width="1" opacity="1" d="M 729.5 354 L 734.5 357 L 738 354.5 L 733.5 358 L 729.5 354 Z " /><path fill="rgb(254,254,254)" stroke="rgb(254,254,254)" stroke-width="1" opacity="1" d="M 757.5 354 L 756.5 356 L 757.5 354 Z " /><path fill="rgb(254,254,254)" stroke="rgb(254,254,254)" stroke-width="1" opacity="1" d="M 323.5 355 L 324.5 357 L 323.5 355 Z " /><path fill="rgb(254,254,254)" stroke="rgb(254,254,254)" stroke-width="1" opacity="1" d="M 426.5 355 L 425 357.5 L 422.5 361 L 424 358.5 L 426.5 355 Z " /><path fill="rgb(254,254,254)" stroke="rgb(254,254,254)" stroke-width="1" opacity="1" d="M 782.5 355 L 784 357.5 L 783 357.5 L 782.5 355 Z " /><path fill="rgb(254,254,254)" stroke="rgb(254,254,254)" stroke-width="1" opacity="1" d="M 851.5 355 L 854.5 359 L 851.5 355 Z " /><path fill="rgb(254,254,254)" stroke="rgb(254,254,254)" stroke-width="1" opacity="1" d="M 892.5 355 L 890.5 358 L 892.5 355 Z " /><path fill="rgb(254,254,254)" stroke="rgb(254,254,254)" stroke-width="1" opacity="1" d="M 217.5 356 L 220 359.5 L 218 358.5 L 217.5 356 Z " /><path fill="rgb(254,254,254)" stroke="rgb(254,254,254)" stroke-width="1" opacity="1" d="M 272.5 356 L 273.5 358 Q 270.7 358.7 272.5 356 Z " /><path fill="rgb(254,254,254)" stroke="rgb(254,254,254)" stroke-width="1" opacity="1" d="M 337.5 356 L 339 361.5 L 338 361.5 L 337.5 356 Z " /><path fill="rgb(254,254,254)" stroke="rgb(254,254,254)" stroke-width="1" opacity="1" d="M 156.5 357 L 157.5 359 L 156.5 357 Z " /><path fill="rgb(254,254,254)" stroke="rgb(254,254,254)" stroke-width="1" opacity="1" d="M 231.5 357 L 231 358.5 L 229.5 361 L 230 359.5 L 231.5 357 Z " /><path fill="rgb(254,254,254)" stroke="rgb(254,254,254)" stroke-width="1" opacity="1" d="M 326.5 358 Q 330.5 360.5 329 368.5 L 328 368.5 Q 328.9 360.5 326.5 358 Z " /><path fill="rgb(254,254,254)" stroke="rgb(254,254,254)" stroke-width="1" opacity="1" d="M 484.5 358 L 483.5 360 L 484.5 358 Z " /><path fill="rgb(254,254,254)" stroke="rgb(254,254,254)" stroke-width="1" opacity="1" d="M 610.5 358 L 612 361.5 L 611 361.5 L 610.5 358 Z " /><path fill="rgb(254,254,254)" stroke="rgb(254,254,254)" stroke-width="1" opacity="1" d="M 714.5 358 L 713.5 360 L 714.5 358 Z " /><path fill="rgb(254,254,254)" stroke="rgb(254,254,254)" stroke-width="1" opacity="1" d="M 753.5 358 L 752.5 360 L 753.5 358 Z " /><path fill="rgb(254,254,254)" stroke="rgb(254,254,254)" stroke-width="1" opacity="1" d="M 403.5 359 L 408 364.5 L 405 362.5 L 403.5 359 Z " /><path fill="rgb(254,254,254)" stroke="rgb(254,254,254)" stroke-width="1" opacity="1" d="M 889.5 359 L 889 360.5 L 888.5 362 L 888 360.5 L 889.5 359 Z " /><path fill="rgb(254,254,254)" stroke="rgb(254,254,254)" stroke-width="1" opacity="1" d="M 161.5 360 L 164 360.5 L 161.5 361 L 161.5 360 Z " /><path fill="rgb(254,254,254)" stroke="rgb(254,254,254)" stroke-width="1" opacity="1" d="M 447.5 360 L 465 360.5 L 447.5 361 L 447.5 360 Z " /><path fill="rgb(254,254,254)" stroke="rgb(254,254,254)" stroke-width="1" opacity="1" d="M 661.5 360 L 678.5 360 L 680 361.5 L 679.5 369 L 679 361 L 661.5 361 L 661.5 360 Z " /><path fill="rgb(254,254,254)" stroke="rgb(254,254,254)" stroke-width="1" opacity="1" d="M 784.5 360 L 785 363.5 L 784 363.5 L 784.5 360 Z " /><path fill="rgb(254,254,254)" stroke="rgb(254,254,254)" stroke-width="1" opacity="1" d="M 855.5 360 L 859.5 365 L 855.5 360 Z " /><path fill="rgb(254,254,254)" stroke="rgb(254,254,254)" stroke-width="1" opacity="1" d="M 220.5 361 L 223 364.5 L 221 363.5 L 220.5 361 Z " /><path fill="rgb(254,254,254)" stroke="rgb(254,254,254)" stroke-width="1" opacity="1" d="M 285.5 361 L 287 364.5 L 286 364.5 L 285.5 361 Z " /><path fill="rgb(254,254,254)" stroke="rgb(254,254,254)" stroke-width="1" opacity="1" d="M 482.5 361 L 483 364.5 L 482 364.5 L 482.5 361 Z " /><path fill="rgb(254,254,254)" stroke="rgb(254,254,254)" stroke-width="1" opacity="1" d="M 631.5 361 L 632 362.5 L 630.5 365 L 630 363.5 L 631.5 361 Z " /><path fill="rgb(254,254,254)" stroke="rgb(254,254,254)" stroke-width="1" opacity="1" d="M 712.5 361 L 713 364.5 L 712 364.5 L 712.5 361 Z " /><path fill="rgb(254,254,254)" stroke="rgb(254,254,254)" stroke-width="1" opacity="1" d="M 751.5 361 L 752 364.5 L 751 364.5 L 751.5 361 Z " /><path fill="rgb(254,254,254)" stroke="rgb(254,254,254)" stroke-width="1" opacity="1" d="M 877.5 361 L 878 369.5 L 877 369.5 L 877.5 361 Z " /><path fill="rgb(254,254,254)" stroke="rgb(254,254,254)" stroke-width="1" opacity="1" d="M 169.5 362 L 173 363.5 L 171.5 364 L 169.5 362 Z " /><path fill="rgb(254,254,254)" stroke="rgb(254,254,254)" stroke-width="1" opacity="1" d="M 228.5 362 L 228 363.5 L 226.5 366 L 227 364.5 L 228.5 362 Z " /><path fill="rgb(254,254,254)" stroke="rgb(254,254,254)" stroke-width="1" opacity="1" d="M 421.5 362 L 420.5 364 L 421.5 362 Z " /><path fill="rgb(254,254,254)" stroke="rgb(254,254,254)" stroke-width="1" opacity="1" d="M 774.5 362 L 775 367.5 L 774 367.5 L 774.5 362 Z " /><path fill="rgb(254,254,254)" stroke="rgb(254,254,254)" stroke-width="1" opacity="1" d="M 147.5 363 L 149.5 366 L 147.5 363 Z " /><path fill="rgb(254,254,254)" stroke="rgb(254,254,254)" stroke-width="1" opacity="1" d="M 237.5 363 L 238 377.5 L 237 377.5 L 237 366.5 L 236 365.5 L 237.5 363 Z " /><path fill="rgb(254,254,254)" stroke="rgb(254,254,254)" stroke-width="1" opacity="1" d="M 259.5 363 L 260 364.5 L 258.5 367 L 258 365.5 L 259.5 363 Z " /><path fill="rgb(254,254,254)" stroke="rgb(254,254,254)" stroke-width="1" opacity="1" d="M 844 363 L 847 364.5 L 851 369.5 L 846 365.5 L 845.5 364 L 844.5 385 L 844 363 Z " /><path fill="rgb(254,254,254)" stroke="rgb(254,254,254)" stroke-width="1" opacity="1" d="M 174.5 364 Q 180.6 366.4 179 376.5 L 178 376.5 L 178 369.5 L 174.5 364 Z " /><path fill="rgb(254,254,254)" stroke="rgb(254,254,254)" stroke-width="1" opacity="1" d="M 211.5 364 L 215 368.5 L 213 367.5 L 212.5 366 L 211.5 385 L 211.5 364 Z " /><path fill="rgb(254,254,254)" stroke="rgb(254,254,254)" stroke-width="1" opacity="1" d="M 420.5 365 L 421.5 367 L 420.5 365 Z " /><path fill="rgb(254,254,254)" stroke="rgb(254,254,254)" stroke-width="1" opacity="1" d="M 613.5 365 L 615 368.5 L 614 368.5 L 613.5 365 Z " /><path fill="rgb(254,254,254)" stroke="rgb(254,254,254)" stroke-width="1" opacity="1" d="M 223.5 366 L 226 367.5 L 224.5 368 L 223.5 366 Z " /><path fill="rgb(254,254,254)" stroke="rgb(254,254,254)" stroke-width="1" opacity="1" d="M 268.5 366 L 269 367.5 L 267 368.5 L 268.5 366 Z " /><path fill="rgb(254,254,254)" stroke="rgb(254,254,254)" stroke-width="1" opacity="1" d="M 406.5 366 L 404.5 369 L 406.5 366 Z " /><path fill="rgb(254,254,254)" stroke="rgb(254,254,254)" stroke-width="1" opacity="1" d="M 482.5 366 L 483 368.5 L 482 368.5 L 482.5 366 Z " /><path fill="rgb(254,254,254)" stroke="rgb(254,254,254)" stroke-width="1" opacity="1" d="M 712.5 366 L 713 368.5 L 712 368.5 L 712.5 366 Z " /><path fill="rgb(254,254,254)" stroke="rgb(254,254,254)" stroke-width="1" opacity="1" d="M 751.5 366 L 752 368.5 L 751 368.5 L 751.5 366 Z " /><path fill="rgb(254,254,254)" stroke="rgb(254,254,254)" stroke-width="1" opacity="1" d="M 235.5 367 L 235 368.5 L 233.5 371 L 234 369.5 L 235.5 367 Z " /><path fill="rgb(254,254,254)" stroke="rgb(254,254,254)" stroke-width="1" opacity="1" d="M 540.5 367 L 541 370.5 L 540 370.5 L 540.5 367 Z " /><path fill="rgb(254,254,254)" stroke="rgb(254,254,254)" stroke-width="1" opacity="1" d="M 784.5 367 L 785 370.5 L 784 370.5 L 784.5 367 Z " /><path fill="rgb(254,254,254)" stroke="rgb(254,254,254)" stroke-width="1" opacity="1" d="M 816.5 367 L 817 370.5 L 816 370.5 L 816.5 367 Z " /><path fill="rgb(254,254,254)" stroke="rgb(254,254,254)" stroke-width="1" opacity="1" d="M 338.5 368 L 339 371.5 L 338 371.5 L 338.5 368 Z " /><path fill="rgb(254,254,254)" stroke="rgb(254,254,254)" stroke-width="1" opacity="1" d="M 422.5 368 L 424.5 371 L 422.5 368 Z " /><path fill="rgb(254,254,254)" stroke="rgb(254,254,254)" stroke-width="1" opacity="1" d="M 628.5 368 L 629 369.5 L 627.5 372 L 626 369.5 L 628 369.5 L 628.5 368 Z " /><path fill="rgb(254,254,254)" stroke="rgb(254,254,254)" stroke-width="1" opacity="1" d="M 159.5 369 L 162 369.5 L 159.5 370 L 159.5 369 Z " /><path fill="rgb(254,254,254)" stroke="rgb(254,254,254)" stroke-width="1" opacity="1" d="M 370.5 369 L 371 376.5 L 370 376.5 L 370.5 369 Z " /><path fill="rgb(254,254,254)" stroke="rgb(254,254,254)" stroke-width="1" opacity="1" d="M 472.5 369 L 473 371.5 L 472 371.5 L 472.5 369 Z " /><path fill="rgb(254,254,254)" stroke="rgb(254,254,254)" stroke-width="1" opacity="1" d="M 550.5 369 L 551 372.5 L 550 372.5 L 550.5 369 Z " /><path fill="rgb(254,254,254)" stroke="rgb(254,254,254)" stroke-width="1" opacity="1" d="M 638.5 369 L 639 370.5 L 637.5 373 L 637 371.5 L 638.5 369 Z " /><path fill="rgb(254,254,254)" stroke="rgb(254,254,254)" stroke-width="1" opacity="1" d="M 702.5 369 L 703 371.5 L 702 371.5 L 702.5 369 Z " /><path fill="rgb(254,254,254)" stroke="rgb(254,254,254)" stroke-width="1" opacity="1" d="M 773.5 369 L 774 370.5 L 771.5 374 L 771 372.5 L 773.5 369 Z " /><path fill="rgb(254,254,254)" stroke="rgb(254,254,254)" stroke-width="1" opacity="1" d="M 826.5 369 L 827 372.5 L 826 372.5 L 826.5 369 Z " /><path fill="rgb(254,254,254)" stroke="rgb(254,254,254)" stroke-width="1" opacity="1" d="M 215.5 370 L 216.5 372 L 215.5 370 Z " /><path fill="rgb(254,254,254)" stroke="rgb(254,254,254)" stroke-width="1" opacity="1" d="M 289.5 370 L 291 373.5 L 290 373.5 L 289.5 370 Z " /><path fill="rgb(254,254,254)" stroke="rgb(254,254,254)" stroke-width="1" opacity="1" d="M 327.5 370 L 327 371.5 L 325.5 374 L 326 372.5 L 327.5 370 Z " /><path fill="rgb(254,254,254)" stroke="rgb(254,254,254)" stroke-width="1" opacity="1" d="M 403.5 370 L 402 372.5 L 399.5 376 L 401 373.5 L 403.5 370 Z " /><path fill="rgb(254,254,254)" stroke="rgb(254,254,254)" stroke-width="1" opacity="1" d="M 483.5 370 L 484.5 372 L 483.5 370 Z " /><path fill="rgb(254,254,254)" stroke="rgb(254,254,254)" stroke-width="1" opacity="1" d="M 713.5 370 L 714.5 372 L 713.5 370 Z " /><path fill="rgb(254,254,254)" stroke="rgb(254,254,254)" stroke-width="1" opacity="1" d="M 752.5 370 L 753.5 372 L 752.5 370 Z " /><path fill="rgb(254,254,254)" stroke="rgb(254,254,254)" stroke-width="1" opacity="1" d="M 166.5 371 L 169 374.5 L 166 376.5 L 168 373.5 L 166.5 371 Z " /><path fill="rgb(254,254,254)" stroke="rgb(254,254,254)" stroke-width="1" opacity="1" d="M 851.5 371 L 855.5 376 L 851.5 371 Z " /><path fill="rgb(254,254,254)" stroke="rgb(254,254,254)" stroke-width="1" opacity="1" d="M 889.5 371 L 897 376.5 L 895.5 377 L 889.5 371 Z " /><path fill="rgb(254,254,254)" stroke="rgb(254,254,254)" stroke-width="1" opacity="1" d="M 232.5 372 L 232 373.5 L 230.5 376 L 231 374.5 L 232.5 372 Z " /><path fill="rgb(254,254,254)" stroke="rgb(254,254,254)" stroke-width="1" opacity="1" d="M 255.5 372 L 256 373.5 L 254.5 376 L 254 374.5 L 255.5 372 Z " /><path fill="rgb(254,254,254)" stroke="rgb(254,254,254)" stroke-width="1" opacity="1" d="M 413.5 372 L 418 377.5 L 415 375.5 L 413.5 373 L 408.5 380 L 410 377.5 L 413.5 372 Z " /><path fill="rgb(254,254,254)" stroke="rgb(254,254,254)" stroke-width="1" opacity="1" d="M 425.5 372 L 430 377.5 L 427 375.5 L 425.5 372 Z " /><path fill="rgb(254,254,254)" stroke="rgb(254,254,254)" stroke-width="1" opacity="1" d="M 503.5 372 L 509 376.5 L 504.5 373 L 501.5 375 L 503.5 372 Z " /><path fill="rgb(254,254,254)" stroke="rgb(254,254,254)" stroke-width="1" opacity="1" d="M 539.5 372 L 540 373.5 L 537 375.5 L 539.5 372 Z " /><path fill="rgb(254,254,254)" stroke="rgb(254,254,254)" stroke-width="1" opacity="1" d="M 616.5 372 L 618 375.5 L 617 375.5 L 616.5 372 Z " /><path fill="rgb(254,254,254)" stroke="rgb(254,254,254)" stroke-width="1" opacity="1" d="M 733.5 372 L 739 376.5 L 734.5 373 L 731.5 375 L 733.5 372 Z " /><path fill="rgb(254,254,254)" stroke="rgb(254,254,254)" stroke-width="1" opacity="1" d="M 783.5 372 L 784 373.5 L 781.5 377 L 782 375.5 L 783.5 372 Z " /><path fill="rgb(254,254,254)" stroke="rgb(254,254,254)" stroke-width="1" opacity="1" d="M 815.5 372 L 816 373.5 L 813 375.5 L 815.5 372 Z " /><path fill="rgb(254,254,254)" stroke="rgb(254,254,254)" stroke-width="1" opacity="1" d="M 908.5 372 L 910.5 372 L 916 377.5 L 910.5 373 Q 906 372.5 905.5 376 L 908.5 372 Z " /><path fill="rgb(254,254,254)" stroke="rgb(254,254,254)" stroke-width="1" opacity="1" d="M 148.5 373 L 154 375.5 L 152.5 376 L 148 374 L 146.5 378 L 146 376.5 L 148.5 373 Z " /><path fill="rgb(254,254,254)" stroke="rgb(254,254,254)" stroke-width="1" opacity="1" d="M 485.5 373 L 489 375.5 L 487.5 375 L 485.5 373 Z " /><path fill="rgb(254,254,254)" stroke="rgb(254,254,254)" stroke-width="1" opacity="1" d="M 715.5 373 L 719 375.5 L 717.5 375 L 715.5 373 Z " /><path fill="rgb(254,254,254)" stroke="rgb(254,254,254)" stroke-width="1" opacity="1" d="M 754.5 373 L 758 375.5 L 756.5 375 L 754.5 373 Z " /><path fill="rgb(254,254,254)" stroke="rgb(254,254,254)" stroke-width="1" opacity="1" d="M 323.5 374 L 322.5 376 L 321 375.5 L 323.5 374 Z " /><path fill="rgb(254,254,254)" stroke="rgb(254,254,254)" stroke-width="1" opacity="1" d="M 526.5 374 L 531 376.5 L 529.5 377 L 526.5 374 Z " /><path fill="rgb(254,254,254)" stroke="rgb(254,254,254)" stroke-width="1" opacity="1" d="M 769.5 374 L 768.5 376 L 769.5 374 Z " /><path fill="rgb(254,254,254)" stroke="rgb(254,254,254)" stroke-width="1" opacity="1" d="M 802.5 374 L 807 376.5 L 805.5 377 L 802.5 374 Z " /><path fill="rgb(254,254,254)" stroke="rgb(254,254,254)" stroke-width="1" opacity="1" d="M 218.5 375 L 219.5 377 L 218.5 375 Z " /><path fill="rgb(254,254,254)" stroke="rgb(254,254,254)" stroke-width="1" opacity="1" d="M 336.5 375 L 335.5 377 L 336.5 375 Z " /><path fill="rgb(254,254,254)" stroke="rgb(254,254,254)" stroke-width="1" opacity="1" d="M 549.5 375 L 550 376.5 L 543.5 384 L 540.5 385 L 540.5 384 L 548 378.5 L 549.5 375 Z " /><path fill="rgb(254,254,254)" stroke="rgb(254,254,254)" stroke-width="1" opacity="1" d="M 825.5 375 L 826 376.5 L 819.5 384 L 816.5 385 L 816.5 384 L 824 378.5 L 825.5 375 Z " /><path fill="rgb(254,254,254)" stroke="rgb(254,254,254)" stroke-width="1" opacity="1" d="M 309.5 376 L 320 376.5 L 309.5 377 L 309.5 376 Z " /><path fill="rgb(254,254,254)" stroke="rgb(254,254,254)" stroke-width="1" opacity="1" d="M 635.5 376 L 636 377.5 L 634.5 380 L 634 378.5 L 635.5 376 Z " /><path fill="rgb(254,254,254)" stroke="rgb(254,254,254)" stroke-width="1" opacity="1" d="M 880.5 376 L 881.5 378 L 880.5 376 Z " /><path fill="rgb(254,254,254)" stroke="rgb(254,254,254)" stroke-width="1" opacity="1" d="M 158.5 377 L 165 377.5 L 158.5 378 L 158.5 377 Z " /><path fill="rgb(254,254,254)" stroke="rgb(254,254,254)" stroke-width="1" opacity="1" d="M 229.5 377 L 229 378.5 L 227.5 381 L 228 379.5 L 229.5 377 Z " /><path fill="rgb(254,254,254)" stroke="rgb(254,254,254)" stroke-width="1" opacity="1" d="M 398.5 377 L 396.5 380 L 398.5 377 Z " /><path fill="rgb(254,254,254)" stroke="rgb(254,254,254)" stroke-width="1" opacity="1" d="M 468.5 377 L 469 384.5 L 468 384.5 L 468.5 377 Z " /><path fill="rgb(254,254,254)" stroke="rgb(254,254,254)" stroke-width="1" opacity="1" d="M 475.5 377 Q 479.1 382.4 486 384.5 L 484.5 385 Q 477.7 382.5 475.5 377 Z " /><path fill="rgb(254,254,254)" stroke="rgb(254,254,254)" stroke-width="1" opacity="1" d="M 516.5 377 L 521.5 383 L 525 384.5 L 523.5 385 L 516 378.5 L 516.5 377 Z " /><path fill="rgb(254,254,254)" stroke="rgb(254,254,254)" stroke-width="1" opacity="1" d="M 682.5 377 L 683 384.5 L 682 384.5 L 682.5 377 Z " /><path fill="rgb(254,254,254)" stroke="rgb(254,254,254)" stroke-width="1" opacity="1" d="M 705.5 377 Q 709.1 382.4 716 384.5 L 714.5 385 Q 707.7 382.5 705.5 377 Z " /><path fill="rgb(254,254,254)" stroke="rgb(254,254,254)" stroke-width="1" opacity="1" d="M 744.5 377 L 748.5 382 L 744.5 377 Z " /><path fill="rgb(254,254,254)" stroke="rgb(254,254,254)" stroke-width="1" opacity="1" d="M 792.5 377 L 797.5 383 L 801 384.5 L 799.5 385 L 792 378.5 L 792.5 377 Z " /><path fill="rgb(254,254,254)" stroke="rgb(254,254,254)" stroke-width="1" opacity="1" d="M 856.5 377 L 859.5 381 L 856.5 377 Z " /><path fill="rgb(254,254,254)" stroke="rgb(254,254,254)" stroke-width="1" opacity="1" d="M 220.5 378 L 222 380.5 L 221 380.5 L 220.5 378 Z " /><path fill="rgb(254,254,254)" stroke="rgb(254,254,254)" stroke-width="1" opacity="1" d="M 263.5 378 L 264 379.5 L 262.5 382 L 262 380.5 L 263.5 378 Z " /><path fill="rgb(254,254,254)" stroke="rgb(254,254,254)" stroke-width="1" opacity="1" d="M 334.5 378 L 332.5 381 L 334.5 378 Z " /><path fill="rgb(254,254,254)" stroke="rgb(254,254,254)" stroke-width="1" opacity="1" d="M 510.5 378 L 506.5 383 L 510.5 378 Z " /><path fill="rgb(254,254,254)" stroke="rgb(254,254,254)" stroke-width="1" opacity="1" d="M 740.5 378 L 736.5 383 L 740.5 378 Z " /><path fill="rgb(254,254,254)" stroke="rgb(254,254,254)" stroke-width="1" opacity="1" d="M 780.5 378 L 777.5 382 L 775.5 383 L 776.5 381 L 780.5 378 Z " /><path fill="rgb(254,254,254)" stroke="rgb(254,254,254)" stroke-width="1" opacity="1" d="M 293.5 379 L 296 384.5 L 295 384.5 L 293.5 379 Z " /><path fill="rgb(254,254,254)" stroke="rgb(254,254,254)" stroke-width="1" opacity="1" d="M 418.5 379 L 419.5 381 L 418.5 379 Z " /><path fill="rgb(254,254,254)" stroke="rgb(254,254,254)" stroke-width="1" opacity="1" d="M 430.5 379 L 434 383.5 L 432 382.5 L 430.5 379 Z " /><path fill="rgb(254,254,254)" stroke="rgb(254,254,254)" stroke-width="1" opacity="1" d="M 882.5 379 L 883.5 381 L 882.5 379 Z " /><path fill="rgb(254,254,254)" stroke="rgb(254,254,254)" stroke-width="1" opacity="1" d="M 915.5 379 L 913.5 382 L 915.5 379 Z " /><path fill="rgb(254,254,254)" stroke="rgb(254,254,254)" stroke-width="1" opacity="1" d="M 176.5 380 L 174.5 383 L 176.5 380 Z " /><path fill="rgb(254,254,254)" stroke="rgb(254,254,254)" stroke-width="1" opacity="1" d="M 145.5 381 L 150 383.5 L 148.5 384 L 145.5 381 Z " /><path fill="rgb(254,254,254)" stroke="rgb(254,254,254)" stroke-width="1" opacity="1" d="M 251.5 381 L 252 382.5 L 250.5 385 L 250 383.5 L 251.5 381 Z " /><path fill="rgb(254,254,254)" stroke="rgb(254,254,254)" stroke-width="1" opacity="1" d="M 283.5 381 L 285 384.5 L 284 384.5 L 283.5 381 Z " /><path fill="rgb(254,254,254)" stroke="rgb(254,254,254)" stroke-width="1" opacity="1" d="M 330.5 381 L 329.5 383 L 330.5 381 Z " /><path fill="rgb(254,254,254)" stroke="rgb(254,254,254)" stroke-width="1" opacity="1" d="M 395.5 381 L 394 383.5 L 393.5 385 L 393 383.5 L 395.5 381 Z " /><path fill="rgb(254,254,254)" stroke="rgb(254,254,254)" stroke-width="1" opacity="1" d="M 407.5 381 L 406.5 383 L 407.5 381 Z " /><path fill="rgb(254,254,254)" stroke="rgb(254,254,254)" stroke-width="1" opacity="1" d="M 885.5 381 L 886.5 383 L 885.5 381 Z " /><path fill="rgb(254,254,254)" stroke="rgb(254,254,254)" stroke-width="1" opacity="1" d="M 420.5 382 L 421.5 384 L 420.5 382 Z " /><path fill="rgb(254,254,254)" stroke="rgb(254,254,254)" stroke-width="1" opacity="1" d="M 750.5 382 L 755 384.5 L 753.5 385 L 750.5 382 Z " /><path fill="rgb(254,254,254)" stroke="rgb(254,254,254)" stroke-width="1" opacity="1" d="M 860.5 382 L 862.5 385 L 860.5 382 Z " /><path fill="rgb(254,254,254)" stroke="rgb(254,254,254)" stroke-width="1" opacity="1" d="M 911.5 382 L 910.5 384 L 907.5 385 L 907.5 384 L 911.5 382 Z " /><path fill="rgb(254,254,254)" stroke="rgb(254,254,254)" stroke-width="1" opacity="1" d="M 322.5 384 L 325 384.5 L 322.5 385 L 322.5 384 Z " /><path fill="rgb(254,254,254)" stroke="rgb(254,254,254)" stroke-width="1" opacity="1" d="M 155.5 385 L 159 385.5 L 155.5 386 L 155.5 385 Z " /><path fill="rgb(254,254,254)" stroke="rgb(254,254,254)" stroke-width="1" opacity="1" d="M 164.5 385 L 168 385.5 L 164.5 386 L 164.5 385 Z " /><path fill="rgb(254,254,254)" stroke="rgb(254,254,254)" stroke-width="1" opacity="1" d="M 488.5 385 L 491 385.5 L 488.5 386 L 488.5 385 Z " /><path fill="rgb(254,254,254)" stroke="rgb(254,254,254)" stroke-width="1" opacity="1" d="M 496.5 385 L 500 385.5 L 496.5 386 L 496.5 385 Z " /><path fill="rgb(254,254,254)" stroke="rgb(254,254,254)" stroke-width="1" opacity="1" d="M 526.5 385 L 530 385.5 L 526.5 386 L 526.5 385 Z " /><path fill="rgb(254,254,254)" stroke="rgb(254,254,254)" stroke-width="1" opacity="1" d="M 535.5 385 L 539 385.5 L 535.5 386 L 535.5 385 Z " /><path fill="rgb(254,254,254)" stroke="rgb(254,254,254)" stroke-width="1" opacity="1" d="M 718.5 385 L 721 385.5 L 718.5 386 L 718.5 385 Z " /><path fill="rgb(254,254,254)" stroke="rgb(254,254,254)" stroke-width="1" opacity="1" d="M 726.5 385 L 730 385.5 L 726.5 386 L 726.5 385 Z " /><path fill="rgb(254,254,254)" stroke="rgb(254,254,254)" stroke-width="1" opacity="1" d="M 757.5 385 L 761 385.5 L 757.5 386 L 757.5 385 Z " /><path fill="rgb(254,254,254)" stroke="rgb(254,254,254)" stroke-width="1" opacity="1" d="M 765.5 385 L 769 385.5 L 765.5 386 L 765.5 385 Z " /><path fill="rgb(254,254,254)" stroke="rgb(254,254,254)" stroke-width="1" opacity="1" d="M 802.5 385 L 806 385.5 L 802.5 386 L 802.5 385 Z " /><path fill="rgb(254,254,254)" stroke="rgb(254,254,254)" stroke-width="1" opacity="1" d="M 811.5 385 L 815 385.5 L 811.5 386 L 811.5 385 Z " /><path fill="rgb(254,254,254)" stroke="rgb(254,254,254)" stroke-width="1" opacity="1" d="M 893.5 385 L 897 385.5 L 893.5 386 L 893.5 385 Z " /><path fill="rgb(254,254,254)" stroke="rgb(254,254,254)" stroke-width="1" opacity="1" d="M 901.5 385 L 905 385.5 L 901.5 386 L 901.5 385 Z " /><path fill="rgb(254,254,254)" stroke="rgb(254,254,254)" stroke-width="1" opacity="1" d="M 316.5 465 L 320 465.5 L 320 477.5 L 322.5 476 L 327.5 475 L 327.5 476 L 324.5 476 L 319 479 L 319 466.5 L 316.5 466 L 316.5 465 Z " /><path fill="rgb(254,254,254)" stroke="rgb(254,254,254)" stroke-width="1" opacity="1" d="M 471 465 L 476 465 L 476 476.5 L 477.5 476 L 482.5 475 L 482.5 476 Q 476.9 475.4 475.5 479 L 475 466 L 472 466.5 L 472 499.5 L 471 499.5 L 471 465 Z " /><path fill="rgb(254,254,254)" stroke="rgb(254,254,254)" stroke-width="1" opacity="1" d="M 148 467 L 167.5 467 L 176 471 L 179 475.5 L 180 482.5 L 179 482.5 Q 179.3 472.7 172.5 470 L 167.5 468 L 149 468 L 148.5 500 L 148 467 Z " /><path fill="rgb(254,254,254)" stroke="rgb(254,254,254)" stroke-width="1" opacity="1" d="M 401 467 L 413 467 L 413 499.5 L 412 499.5 L 412 468.5 L 411.5 468 L 402 468 L 402 470 L 408.5 470 L 409 470.5 L 409 499.5 L 408 499.5 L 408 471.5 L 407.5 471 L 401 471 L 401 467 Z " /><path fill="rgb(254,254,254)" stroke="rgb(254,254,254)" stroke-width="1" opacity="1" d="M 435 467 L 440.5 467 L 441 468.5 L 425.5 488 L 425 486.5 L 440 468.5 L 436.5 468 L 421 486.5 L 420 491 L 436.5 491 L 438 492.5 L 437.5 500 L 437 492 L 419.5 492 Q 418.5 492 419 487.5 L 435 467 Z " /><path fill="rgb(254,254,254)" stroke="rgb(254,254,254)" stroke-width="1" opacity="1" d="M 526.5 467 L 530 467.5 L 526.5 468 L 526.5 467 Z " /><path fill="rgb(254,254,254)" stroke="rgb(254,254,254)" stroke-width="1" opacity="1" d="M 534.5 467 Q 540.7 466.3 542 470.5 L 543 474.5 L 542 474.5 L 539.5 469 L 534.5 468 L 534.5 467 Z " /><path fill="rgb(254,254,254)" stroke="rgb(254,254,254)" stroke-width="1" opacity="1" d="M 556.5 467 L 560 467.5 Q 553.5 468 551 472.5 L 548.5 480 L 548 476.5 L 551 470 L 556.5 467 Z " /><path fill="rgb(254,254,254)" stroke="rgb(254,254,254)" stroke-width="1" opacity="1" d="M 562.5 467 Q 569.7 467.2 572 472.5 L 574 479.5 L 573 479.5 Q 572.5 472 567.5 469 L 562.5 468 L 562.5 467 Z " /><path fill="rgb(254,254,254)" stroke="rgb(254,254,254)" stroke-width="1" opacity="1" d="M 582.5 467 L 586 467.5 Q 579.8 467.8 577 471.5 Q 579.3 476.3 581.5 472 L 584.5 471 L 584.5 472 L 579.5 475 L 576 472.5 L 578.5 469 L 582.5 467 Z " /><path fill="rgb(254,254,254)" stroke="rgb(254,254,254)" stroke-width="1" opacity="1" d="M 591.5 467 L 594.5 467 L 598 469 Q 600.7 471.6 600 478.5 L 599 478.5 Q 600.1 469.9 594.5 468 Q 590.5 468.8 591.5 467 Z " /><path fill="rgb(254,254,254)" stroke="rgb(254,254,254)" stroke-width="1" opacity="1" d="M 619.5 467 L 625 467.5 L 608.5 488 L 610 485.5 L 623 468.5 L 619.5 468 L 603 488.5 L 603 491 L 621 491 L 621 498.5 L 620 498.5 L 620 492 L 602.5 492 L 602 488.5 L 619.5 467 Z " /><path fill="rgb(254,254,254)" stroke="rgb(254,254,254)" stroke-width="1" opacity="1" d="M 523.5 468 L 525 468.5 L 521 471.5 L 522.5 474 Q 525.7 469.7 533.5 470 L 538 472 L 539 478.5 L 530.5 489 L 522 496.5 L 521.5 500 L 521 496.5 L 537 480.5 L 538 474.5 Q 536.4 470.1 529.5 471 L 522.5 475 L 520 471.5 L 523.5 468 Z " /><path fill="rgb(254,254,254)" stroke="rgb(254,254,254)" stroke-width="1" opacity="1" d="M 453.5 469 L 457 470.5 L 455.5 470 Q 452.5 470.5 453.5 469 Z " /><path fill="rgb(254,254,254)" stroke="rgb(254,254,254)" stroke-width="1" opacity="1" d="M 153.5 470 L 163 470.5 L 153.5 471 L 153.5 470 Z " /><path fill="rgb(254,254,254)" stroke="rgb(254,254,254)" stroke-width="1" opacity="1" d="M 559.5 470 Q 566.8 470.3 569 475.5 L 570 481.5 L 569 481.5 Q 569.9 473.6 564.5 472 L 559.5 471 L 554 475.5 L 552.5 481 L 552 477.5 L 555.5 472 L 559.5 470 Z " /><path fill="rgb(254,254,254)" stroke="rgb(254,254,254)" stroke-width="1" opacity="1" d="M 586.5 470 L 590 470.5 L 586.5 471 L 586.5 470 Z " /><path fill="rgb(254,254,254)" stroke="rgb(254,254,254)" stroke-width="1" opacity="1" d="M 164.5 471 L 167.5 471 L 173 474 L 176 479.5 L 176 487.5 L 171.5 494 L 169.5 495 L 170.5 493 Q 172.8 493.8 172 491.5 Q 176.7 488.7 175 479.5 L 169.5 473 L 164.5 472 L 164.5 471 Z " /><path fill="rgb(254,254,254)" stroke="rgb(254,254,254)" stroke-width="1" opacity="1" d="M 591.5 471 L 595 473.5 L 592.5 472 L 591.5 471 Z " /><path fill="rgb(254,254,254)" stroke="rgb(254,254,254)" stroke-width="1" opacity="1" d="M 191.5 475 L 195 475.5 Q 188.5 476 186 480.5 L 184.5 485 L 184 482.5 L 186 478 L 191.5 475 Z " /><path fill="rgb(254,254,254)" stroke="rgb(254,254,254)" stroke-width="1" opacity="1" d="M 197.5 475 Q 204.8 475.3 207 480.5 L 208 486.5 L 207 486.5 Q 207.9 478.6 202.5 477 L 197.5 476 L 197.5 475 Z " /><path fill="rgb(254,254,254)" stroke="rgb(254,254,254)" stroke-width="1" opacity="1" d="M 219.5 475 L 223 475.5 Q 215.7 476.2 213 481.5 L 211.5 491 L 211 484.5 L 215.5 477 L 219.5 475 Z " /><path fill="rgb(254,254,254)" stroke="rgb(254,254,254)" stroke-width="1" opacity="1" d="M 225.5 475 Q 233.4 474.1 235 479.5 L 233.5 482 L 231.5 483 Q 229.9 478.1 222.5 479 L 218 481 Q 215.4 483.3 216 489.5 L 219.5 495 L 227 496.5 L 221.5 497 L 216 492.5 L 215 485.5 L 218.5 480 Q 220.8 477.3 226.5 478 L 231.5 482 L 233 478 L 229.5 476 L 225.5 476 L 225.5 475 Z " /><path fill="rgb(254,254,254)" stroke="rgb(254,254,254)" stroke-width="1" opacity="1" d="M 244.5 475 L 248 475.5 Q 241.5 476 239 480.5 L 237.5 487 L 237 482.5 L 242.5 476 L 244.5 475 Z " /><path fill="rgb(254,254,254)" stroke="rgb(254,254,254)" stroke-width="1" opacity="1" d="M 250.5 475 Q 257.1 474.4 259 478.5 L 260 480.5 L 255.5 477 L 250.5 476 L 250.5 475 Z " /><path fill="rgb(254,254,254)" stroke="rgb(254,254,254)" stroke-width="1" opacity="1" d="M 267 475 L 271 475.5 L 268 476 L 267.5 500 L 267 475 Z " /><path fill="rgb(254,254,254)" stroke="rgb(254,254,254)" stroke-width="1" opacity="1" d="M 275.5 475 L 279 475.5 Q 273.6 475.6 271.5 479 L 271 477 L 275.5 475 Z " /><path fill="rgb(254,254,254)" stroke="rgb(254,254,254)" stroke-width="1" opacity="1" d="M 280.5 475 Q 286.6 474.4 288.5 478 Q 290.4 474.4 296.5 475 L 296.5 476 Q 289.8 475.3 288.5 480 Q 286.5 476 280.5 476 L 280.5 475 Z " /><path fill="rgb(254,254,254)" stroke="rgb(254,254,254)" stroke-width="1" opacity="1" d="M 299.5 475 Q 304.6 474.4 306 477.5 L 308 481.5 L 308 499.5 L 307 499.5 L 307 481.5 L 302.5 476 Q 298.5 476.7 299.5 475 Z " /><path fill="rgb(254,254,254)" stroke="rgb(254,254,254)" stroke-width="1" opacity="1" d="M 330.5 475 Q 337.8 475.3 340 480.5 L 341 484.5 L 340 484.5 Q 339.6 479 335.5 477 L 330.5 476 L 330.5 475 Z " /><path fill="rgb(254,254,254)" stroke="rgb(254,254,254)" stroke-width="1" opacity="1" d="M 352.5 475 L 356 475.5 Q 349.5 476 347 480.5 L 345.5 485 L 345 482.5 L 347 478 L 352.5 475 Z " /><path fill="rgb(254,254,254)" stroke="rgb(254,254,254)" stroke-width="1" opacity="1" d="M 358.5 475 Q 365.8 475.3 368 480.5 L 369 486.5 L 368 486.5 Q 368.9 478.6 363.5 477 L 358.5 476 L 358.5 475 Z " /><path fill="rgb(254,254,254)" stroke="rgb(254,254,254)" stroke-width="1" opacity="1" d="M 375.5 475 Q 379.9 473.5 379 476.5 L 380.5 476 L 388 475 L 387.5 479 L 387 476 Q 380.8 474.9 378.5 479 L 378 476 Q 374.7 476.7 375.5 475 Z " /><path fill="rgb(254,254,254)" stroke="rgb(254,254,254)" stroke-width="1" opacity="1" d="M 448 475 L 453 475.5 L 449 476 Q 447.7 479.3 452.5 478 L 452.5 479 Q 445.8 481 448 475 Z " /><path fill="rgb(254,254,254)" stroke="rgb(254,254,254)" stroke-width="1" opacity="1" d="M 457.5 475 L 465 475 L 465 479 L 457 478.5 L 464 478 Q 465.1 474.5 457.5 476 L 457.5 475 Z " /><path fill="rgb(254,254,254)" stroke="rgb(254,254,254)" stroke-width="1" opacity="1" d="M 485.5 475 Q 491.7 474.3 493 478.5 L 494 482.5 L 493 482.5 L 490.5 477 L 485.5 476 L 485.5 475 Z " /><path fill="rgb(254,254,254)" stroke="rgb(254,254,254)" stroke-width="1" opacity="1" d="M 595.5 475 L 596 477.5 L 594 481.5 L 578 497.5 L 577.5 500 L 577 497.5 L 593 481.5 L 595.5 475 Z " /><path fill="rgb(254,254,254)" stroke="rgb(254,254,254)" stroke-width="1" opacity="1" d="M 542.5 477 L 543 480.5 L 529 495.5 L 545 496 L 544.5 500 L 544 497 L 527 496.5 L 541 482.5 L 542.5 477 Z " /><path fill="rgb(254,254,254)" stroke="rgb(254,254,254)" stroke-width="1" opacity="1" d="M 194.5 478 Q 200.9 477.6 203 481.5 L 204 486 L 187 485.5 L 191.5 479 L 193 479.5 L 190 481 L 189 485 L 202.5 485 L 203 483.5 Q 200.9 479.1 194.5 479 L 194.5 478 Z " /><path fill="rgb(254,254,254)" stroke="rgb(254,254,254)" stroke-width="1" opacity="1" d="M 247.5 478 Q 255.4 477.1 257 482.5 L 258 485.5 L 241 486 L 243.5 480 L 247.5 478 Z M 248 479 L 242 484 L 243 485 L 256 485 L 255 482 Q 253 478 248 479 Z " /><path fill="rgb(254,254,254)" stroke="rgb(254,254,254)" stroke-width="1" opacity="1" d="M 277.5 478 L 280 478.5 Q 274.4 479.4 272 483.5 L 271.5 500 L 271 483.5 L 273.5 480 L 277.5 478 Z " /><path fill="rgb(254,254,254)" stroke="rgb(254,254,254)" stroke-width="1" opacity="1" d="M 295.5 478 Q 301.9 478.1 304 482.5 L 303.5 500 L 303 482.5 L 300.5 480 L 295.5 479 L 291 482.5 L 290 484.5 L 289.5 500 L 289 484.5 L 293.5 479 L 295.5 478 Z " /><path fill="rgb(254,254,254)" stroke="rgb(254,254,254)" stroke-width="1" opacity="1" d="M 326.5 478 Q 334.6 477.9 337 483.5 L 336.5 486 L 332.5 480 L 326.5 479 L 321 483.5 L 320.5 486 L 320 483.5 L 326.5 478 Z " /><path fill="rgb(254,254,254)" stroke="rgb(254,254,254)" stroke-width="1" opacity="1" d="M 355.5 478 Q 361.9 477.6 364 481.5 L 365 486 L 348 485.5 L 352.5 479 L 354 479.5 L 351 481 L 350 485 L 363.5 485 L 364 483.5 Q 361.9 479.1 355.5 479 L 355.5 478 Z " /><path fill="rgb(254,254,254)" stroke="rgb(254,254,254)" stroke-width="1" opacity="1" d="M 481.5 478 L 485 478.5 Q 478.5 479 476 483.5 L 475.5 500 L 475 483.5 L 477 480 L 481.5 478 Z " /><path fill="rgb(254,254,254)" stroke="rgb(254,254,254)" stroke-width="1" opacity="1" d="M 281.5 479 L 285 481.5 L 286 483.5 L 286 499.5 L 285 499.5 L 285 483.5 L 282.5 480 L 281.5 479 Z " /><path fill="rgb(254,254,254)" stroke="rgb(254,254,254)" stroke-width="1" opacity="1" d="M 383.5 479 L 386 479.5 L 381 481 L 379.5 487 L 379 483.5 L 381.5 480 L 383.5 479 Z " /><path fill="rgb(254,254,254)" stroke="rgb(254,254,254)" stroke-width="1" opacity="1" d="M 486.5 479 L 489 480 L 490 483.5 L 489 483.5 L 486.5 479 Z " /><path fill="rgb(254,254,254)" stroke="rgb(254,254,254)" stroke-width="1" opacity="1" d="M 437 480 L 442 480 L 442 487.5 L 441 487.5 L 441 481 L 438 481 L 437.5 488 L 437 480 Z " /><path fill="rgb(254,254,254)" stroke="rgb(254,254,254)" stroke-width="1" opacity="1" d="M 598.5 480 L 599 481.5 L 586 495.5 L 601 496.5 L 584 497 L 584 495.5 L 598.5 480 Z " /><path fill="rgb(254,254,254)" stroke="rgb(254,254,254)" stroke-width="1" opacity="1" d="M 621.5 480 L 625 480 L 625 487.5 L 624 487.5 L 624 481 L 621.5 481 L 621.5 480 Z " /><path fill="rgb(254,254,254)" stroke="rgb(254,254,254)" stroke-width="1" opacity="1" d="M 547.5 482 L 548 484.5 L 547 484.5 L 547.5 482 Z " /><path fill="rgb(254,254,254)" stroke="rgb(254,254,254)" stroke-width="1" opacity="1" d="M 574.5 482 L 575 484.5 L 574 484.5 L 574.5 482 Z " /><path fill="rgb(254,254,254)" stroke="rgb(254,254,254)" stroke-width="1" opacity="1" d="M 179.5 484 L 180 488.5 L 179 488.5 L 179.5 484 Z " /><path fill="rgb(254,254,254)" stroke="rgb(254,254,254)" stroke-width="1" opacity="1" d="M 490.5 485 L 491 499.5 L 490 499.5 L 490.5 485 Z " /><path fill="rgb(254,254,254)" stroke="rgb(254,254,254)" stroke-width="1" opacity="1" d="M 494.5 485 L 495 499.5 L 494 499.5 L 494.5 485 Z " /><path fill="rgb(254,254,254)" stroke="rgb(254,254,254)" stroke-width="1" opacity="1" d="M 183.5 486 L 184 488.5 L 183 488.5 L 183.5 486 Z " /><path fill="rgb(254,254,254)" stroke="rgb(254,254,254)" stroke-width="1" opacity="1" d="M 261.5 486 L 262 488.5 L 261 488.5 L 261.5 486 Z " /><path fill="rgb(254,254,254)" stroke="rgb(254,254,254)" stroke-width="1" opacity="1" d="M 344.5 486 L 345 488.5 L 344 488.5 L 344.5 486 Z " /><path fill="rgb(254,254,254)" stroke="rgb(254,254,254)" stroke-width="1" opacity="1" d="M 552.5 486 Q 553.2 493.3 558.5 496 L 563.5 496 L 568 491.5 L 569.5 486 L 570 489.5 L 565.5 496 L 558.5 497 L 554 493.5 Q 551 490.8 552.5 486 Z " /><path fill="rgb(254,254,254)" stroke="rgb(254,254,254)" stroke-width="1" opacity="1" d="M 548.5 487 L 549 490.5 L 548 490.5 L 548.5 487 Z " /><path fill="rgb(254,254,254)" stroke="rgb(254,254,254)" stroke-width="1" opacity="1" d="M 573.5 487 L 574 490.5 L 568.5 499 L 564.5 500 L 564.5 499 L 566.5 499 L 572 493.5 L 573.5 487 Z " /><path fill="rgb(254,254,254)" stroke="rgb(254,254,254)" stroke-width="1" opacity="1" d="M 237.5 488 Q 237.4 495.6 242.5 498 L 246 499.5 L 244.5 500 L 238 494.5 L 237.5 488 Z " /><path fill="rgb(254,254,254)" stroke="rgb(254,254,254)" stroke-width="1" opacity="1" d="M 378.5 488 L 379 499.5 L 378 499.5 L 378.5 488 Z " /><path fill="rgb(254,254,254)" stroke="rgb(254,254,254)" stroke-width="1" opacity="1" d="M 447.5 488 L 448 492 L 442 492 L 442 499.5 L 441 499.5 Q 439.3 492.8 442.5 491 Q 448.5 492.9 447.5 488 Z " /><path fill="rgb(254,254,254)" stroke="rgb(254,254,254)" stroke-width="1" opacity="1" d="M 631.5 488 L 632 492 L 625 492 L 625 499.5 L 624 499.5 Q 622.3 492.8 625.5 491 Q 632.5 493.3 631.5 488 Z " /><path fill="rgb(254,254,254)" stroke="rgb(254,254,254)" stroke-width="1" opacity="1" d="M 187.5 489 L 190 494 L 193 495.5 L 191.5 496 L 187.5 489 Z " /><path fill="rgb(254,254,254)" stroke="rgb(254,254,254)" stroke-width="1" opacity="1" d="M 241.5 489 L 245.5 495 L 253 496.5 L 247.5 497 L 243 495 L 241 491.5 L 241.5 489 Z " /><path fill="rgb(254,254,254)" stroke="rgb(254,254,254)" stroke-width="1" opacity="1" d="M 320.5 489 Q 321 494.5 325.5 496 Q 334.5 497.5 336 491.5 L 336.5 490 L 337 491.5 L 333.5 496 L 325.5 497 L 321 493.5 L 320.5 489 Z " /><path fill="rgb(254,254,254)" stroke="rgb(254,254,254)" stroke-width="1" opacity="1" d="M 348.5 489 L 351 494 L 354 495.5 L 352.5 496 L 348.5 489 Z " /><path fill="rgb(254,254,254)" stroke="rgb(254,254,254)" stroke-width="1" opacity="1" d="M 178.5 490 L 179 491.5 L 174.5 497 Q 171.7 500.7 164.5 500 L 164.5 499 Q 172.8 499.3 176 494.5 L 178.5 490 Z " /><path fill="rgb(254,254,254)" stroke="rgb(254,254,254)" stroke-width="1" opacity="1" d="M 340.5 490 L 341 492.5 L 337.5 498 L 332.5 500 L 332.5 499 L 334.5 499 L 339 494.5 L 340.5 490 Z " /><path fill="rgb(254,254,254)" stroke="rgb(254,254,254)" stroke-width="1" opacity="1" d="M 212.5 492 L 215 497 L 221 499.5 L 218.5 500 L 213 495.5 L 212.5 492 Z " /><path fill="rgb(254,254,254)" stroke="rgb(254,254,254)" stroke-width="1" opacity="1" d="M 549.5 492 L 555.5 499 L 558 499.5 L 555.5 500 L 551 496.5 L 549.5 492 Z " /><path fill="rgb(254,254,254)" stroke="rgb(254,254,254)" stroke-width="1" opacity="1" d="M 203.5 493 L 207 495.5 L 204.5 499 Q 201.2 501.7 194.5 501 L 194.5 500 Q 202.9 500.9 206 496.5 L 204.5 494 Q 201.9 497.9 194.5 497 L 194.5 496 Q 201.6 497.1 203.5 493 Z " /><path fill="rgb(254,254,254)" stroke="rgb(254,254,254)" stroke-width="1" opacity="1" d="M 230.5 493 Q 234.5 492.5 235 495.5 L 228.5 500 L 228.5 499 L 234 495.5 L 230.5 494 L 228 495.5 L 230.5 493 Z " /><path fill="rgb(254,254,254)" stroke="rgb(254,254,254)" stroke-width="1" opacity="1" d="M 257.5 493 Q 259.8 492.3 259 494.5 L 260 496.5 L 254.5 500 L 254.5 499 L 259 496.5 L 257.5 494 L 254.5 496 L 255.5 494 L 257.5 493 Z " /><path fill="rgb(254,254,254)" stroke="rgb(254,254,254)" stroke-width="1" opacity="1" d="M 364.5 493 L 368 495.5 L 365.5 499 Q 362.2 501.7 355.5 501 L 355.5 500 Q 363.9 500.9 367 496.5 L 365.5 494 Q 362.9 497.9 355.5 497 L 355.5 496 Q 362.6 497.1 364.5 493 Z " /><path fill="rgb(254,254,254)" stroke="rgb(254,254,254)" stroke-width="1" opacity="1" d="M 457.5 493 L 459.5 496 L 464.5 495 L 466 498.5 L 463.5 500 L 463.5 499 Q 466.5 499.7 465 496 L 459.5 497 L 457 496 L 457.5 493 Z " /><path fill="rgb(254,254,254)" stroke="rgb(254,254,254)" stroke-width="1" opacity="1" d="M 185.5 494 L 189.5 499 L 186 496.5 L 185.5 494 Z " /><path fill="rgb(254,254,254)" stroke="rgb(254,254,254)" stroke-width="1" opacity="1" d="M 346.5 494 L 350.5 499 L 347 496.5 L 346.5 494 Z " /><path fill="rgb(254,254,254)" stroke="rgb(254,254,254)" stroke-width="1" opacity="1" d="M 453.5 494 L 456.5 499 L 462 500.5 L 458.5 501 L 454 499 L 453.5 494 Z " /><path fill="rgb(254,254,254)" stroke="rgb(254,254,254)" stroke-width="1" opacity="1" d="M 502.5 494 L 506 495 L 506 500.5 L 504 507 Q 498.4 509.2 500 503.5 L 501 500.5 L 500 495.5 L 501 495.5 L 502 502.5 L 501 506 Q 503.7 507.1 503 504.5 Q 505.7 502.2 505 496.5 L 502.5 494 Z " /><path fill="rgb(254,254,254)" stroke="rgb(254,254,254)" stroke-width="1" opacity="1" d="M 153.5 496 L 165 496.5 L 153.5 497 L 153.5 496 Z " /><path fill="rgb(254,254,254)" stroke="rgb(254,254,254)" stroke-width="1" opacity="1" d="M 319 496 L 323.5 499 L 331 500.5 L 326.5 501 L 320.5 498 L 319.5 500 L 319 496 Z " /><path fill="rgb(254,254,254)" stroke="rgb(254,254,254)" stroke-width="1" opacity="1" d="M 222.5 500 L 227 500.5 L 222.5 501 L 222.5 500 Z " /><path fill="rgb(254,254,254)" stroke="rgb(254,254,254)" stroke-width="1" opacity="1" d="M 248.5 500 L 253 500.5 L 248.5 501 L 248.5 500 Z " /><path fill="rgb(254,254,254)" stroke="rgb(254,254,254)" stroke-width="1" opacity="1" d="M 559.5 500 L 563 500.5 L 559.5 501 L 559.5 500 Z " /><path fill="rgb(255,255,255)" stroke="rgb(255,255,255)" stroke-width="1" opacity="1" d="M 0 0 L 1224 0 L 1224 1584 L 0 1584 L 0 0 Z M 147 75 L 147 186 L 261 186 L 261 75 L 147 75 Z M 390 276 L 382 279 Q 374 284 372 294 L 372 302 L 377 312 L 389 318 L 401 318 L 409 315 L 411 313 L 411 296 L 401 296 L 401 307 L 397 309 L 390 308 L 383 300 Q 382 293 385 291 Q 388 286 395 285 Q 402 285 405 290 L 411 285 Q 413 286 412 284 Q 406 274 390 276 Z M 676 276 L 669 279 L 664 286 L 665 295 L 670 299 L 682 302 L 687 306 L 686 308 L 684 309 L 676 309 L 666 305 L 663 314 L 674 318 Q 685 320 692 316 Q 699 313 697 301 L 689 294 L 677 291 L 675 288 L 679 285 L 685 285 L 693 288 L 696 279 L 687 276 L 676 276 Z M 148 277 L 148 317 L 149 317 L 158 317 L 159 298 L 167 312 Q 167 314 174 313 L 183 298 L 183 310 L 184 311 L 184 317 L 194 317 L 194 278 L 194 277 L 185 277 L 172 298 Q 173 300 171 299 L 159 280 L 157 277 L 148 277 Z M 201 277 L 201 317 L 233 317 L 233 309 L 212 309 L 212 301 L 230 301 L 230 292 L 212 292 L 212 287 L 213 286 L 233 286 L 233 278 L 233 277 L 201 277 Z M 239 277 L 239 317 L 271 317 L 271 309 L 249 309 L 249 301 L 268 301 L 268 294 L 267 292 L 249 292 L 249 287 L 250 286 L 270 286 L 270 278 L 270 277 L 239 277 Z M 272 277 L 272 286 L 284 286 L 284 287 L 284 317 L 295 317 L 295 286 L 307 286 L 308 285 L 308 278 L 308 277 L 272 277 Z M 311 277 L 311 317 L 312 317 L 322 317 L 322 278 L 322 277 L 311 277 Z M 329 277 L 329 317 L 330 317 L 340 317 L 341 296 L 355 315 L 358 317 L 367 317 L 367 278 L 367 277 L 356 277 L 356 298 L 341 280 L 339 277 L 329 277 Z M 434 277 L 434 317 L 435 317 L 444 317 L 445 298 L 453 312 L 454 313 L 460 313 L 467 300 L 469 299 L 469 317 L 479 317 L 479 278 L 479 277 L 471 277 L 457 300 L 444 279 L 443 277 L 434 277 Z M 487 277 L 487 317 L 488 317 L 498 317 L 498 278 L 498 277 L 487 277 Z M 506 277 L 506 317 L 507 317 L 516 317 L 517 296 L 533 316 L 534 317 L 543 317 L 543 278 L 543 277 L 533 277 L 533 299 L 519 282 Q 517 275 506 277 Z M 551 277 L 551 307 L 554 313 L 564 318 Q 576 320 582 315 L 586 310 L 588 302 L 588 277 L 577 277 L 577 303 L 575 307 L 571 309 L 566 308 L 562 305 L 561 301 L 561 277 L 551 277 Z M 590 277 L 590 286 L 602 286 L 602 287 L 602 317 L 613 317 L 613 286 L 625 286 L 625 278 L 625 277 L 590 277 Z M 629 277 L 629 317 L 661 317 L 661 309 L 639 309 L 639 301 L 657 301 L 657 292 L 639 292 L 639 287 L 640 286 L 660 286 L 660 278 L 660 277 L 629 277 Z M 940 342 L 938 344 L 938 385 L 939 385 L 948 385 L 948 343 L 948 342 L 940 342 Z M 158 344 L 151 347 L 146 353 Q 145 360 147 364 L 154 368 L 166 371 L 168 374 L 166 377 L 158 377 L 149 373 Q 145 376 145 382 L 156 386 Q 168 388 175 383 L 179 377 L 178 368 L 171 362 L 161 360 L 156 357 L 157 354 L 160 353 L 166 353 L 175 356 L 177 347 Q 171 343 158 344 Z M 489 344 L 480 348 Q 474 352 472 360 Q 470 372 475 378 Q 479 384 489 386 Q 501 388 507 383 L 511 379 L 505 372 L 496 377 Q 489 377 487 374 L 483 370 L 482 366 L 485 358 L 490 354 L 494 353 Q 501 353 504 358 L 510 354 L 511 352 Q 505 342 489 344 Z M 719 344 L 710 348 Q 704 352 702 360 Q 700 372 705 378 Q 709 384 719 386 Q 731 388 737 383 L 741 379 L 735 372 L 726 377 Q 719 377 717 374 L 713 370 L 712 366 L 715 358 L 720 354 L 724 353 Q 731 353 734 358 L 740 354 L 741 352 Q 735 342 719 344 Z M 758 344 L 748 349 Q 743 353 741 360 Q 739 372 744 378 Q 748 384 758 386 Q 771 388 778 382 Q 783 378 785 371 L 784 357 L 780 351 Q 773 343 758 344 Z M 895 344 L 887 347 Q 879 352 877 362 L 877 370 L 882 380 L 894 386 Q 910 388 916 380 L 916 378 L 911 372 L 909 372 L 902 377 Q 896 378 894 375 L 888 368 Q 887 361 890 359 Q 893 354 899 353 L 904 354 L 909 358 L 911 358 L 916 353 L 916 351 L 905 344 L 895 344 Z M 184 345 L 184 385 L 185 385 L 194 385 L 194 346 L 194 345 L 184 345 Z M 202 345 L 202 385 L 203 385 L 212 385 L 213 366 L 221 380 Q 220 383 228 381 L 237 366 L 237 378 L 238 379 L 238 385 L 248 385 L 248 346 L 248 345 L 239 345 L 226 366 Q 227 368 225 367 L 213 348 L 211 345 L 202 345 Z M 267 345 L 250 384 L 251 385 L 261 385 L 264 380 L 265 377 L 281 377 L 284 384 L 285 385 L 296 385 L 279 348 L 279 345 L 267 345 Z M 298 345 L 298 385 L 325 385 L 333 381 L 339 372 L 339 359 L 334 350 L 324 345 L 298 345 Z M 360 345 L 360 385 L 392 385 L 392 377 L 371 377 L 371 369 L 389 369 L 389 360 L 371 360 L 371 355 L 372 354 L 392 354 L 392 346 L 392 345 L 360 345 Z M 394 345 L 395 349 L 407 365 L 393 384 L 394 385 L 406 385 L 414 373 L 420 383 L 423 385 L 434 385 L 433 382 L 420 365 L 433 347 L 433 345 L 421 345 L 415 355 Q 416 357 413 356 L 408 348 L 406 345 L 394 345 Z M 437 345 L 437 385 L 469 385 L 469 377 L 447 377 L 447 369 L 465 369 L 465 360 L 447 360 L 447 355 L 448 354 L 468 354 L 468 346 L 468 345 L 437 345 Z M 514 345 L 514 373 L 516 379 Q 519 384 527 386 Q 538 388 544 384 Q 550 381 551 373 L 551 345 L 541 345 L 541 367 L 539 374 L 534 377 L 528 375 L 525 372 L 525 345 L 514 345 Z M 553 345 L 553 354 L 566 354 L 566 355 L 566 385 L 576 385 L 576 385 L 576 354 L 588 354 L 589 353 L 589 346 L 589 345 L 553 345 Z M 592 345 L 592 385 L 593 385 L 603 385 L 603 346 L 603 345 L 592 345 Z M 605 345 L 607 353 L 621 384 L 622 385 L 633 385 L 649 348 L 649 345 L 638 345 L 628 370 L 624 365 L 617 347 L 616 345 L 605 345 Z M 651 345 L 651 385 L 683 385 L 683 377 L 661 377 L 661 369 L 680 369 L 680 362 L 679 360 L 661 360 L 661 355 L 662 354 L 682 354 L 682 346 L 682 345 L 651 345 Z M 790 345 L 790 373 L 792 379 Q 795 384 803 386 Q 814 388 820 384 Q 826 381 827 373 L 827 345 L 817 345 L 817 367 L 815 374 L 810 377 L 804 375 L 801 372 L 801 345 L 790 345 Z M 834 345 L 834 385 L 835 385 L 845 385 L 846 364 L 860 383 L 863 385 L 872 385 L 872 346 L 872 345 L 861 345 L 861 366 L 846 348 L 844 345 L 834 345 Z M 920 345 L 920 385 L 921 385 L 931 385 L 931 346 L 931 345 L 920 345 Z M 316 465 L 316 500 L 320 500 L 321 498 L 327 501 Q 334 502 338 498 L 342 489 L 340 481 L 334 475 Q 326 474 323 476 L 320 478 L 320 466 L 316 465 Z M 471 465 L 471 500 L 476 500 L 476 484 Q 478 478 486 479 L 490 485 L 490 500 L 495 500 Q 497 487 493 479 L 489 475 Q 481 474 478 476 L 476 477 L 476 465 L 471 465 Z M 148 467 L 148 500 L 169 500 L 175 497 Q 179 494 180 489 L 180 479 L 176 471 L 168 467 L 148 467 Z M 401 467 L 401 471 L 408 471 L 408 500 L 413 500 L 413 467 L 401 467 Z M 435 467 L 419 488 Q 418 492 420 492 L 437 492 L 437 500 L 442 500 L 442 492 L 448 492 L 448 488 L 442 488 L 442 480 L 437 480 L 437 488 L 426 488 L 441 469 L 441 467 L 435 467 Z M 527 467 L 520 472 L 523 475 L 530 471 Q 536 470 538 475 L 537 481 L 521 497 L 521 500 L 545 500 L 545 496 L 529 496 L 543 481 Q 544 474 542 471 Q 538 465 527 467 Z M 557 467 L 551 470 L 549 474 L 547 483 L 548 491 L 551 497 L 554 499 L 560 501 L 569 499 L 573 494 L 575 485 L 574 477 L 572 473 Q 569 465 557 467 Z M 583 467 L 579 469 L 576 473 L 580 475 L 586 471 Q 593 470 595 475 L 593 482 L 577 498 L 577 500 L 601 500 L 601 496 L 586 496 Q 596 490 600 479 Q 601 472 598 469 L 595 467 L 583 467 Z M 620 467 L 602 489 L 603 492 L 620 492 Q 618 498 622 500 L 625 500 L 625 492 L 632 492 L 632 488 L 625 488 L 625 480 L 621 480 L 621 488 L 609 488 L 625 468 L 620 467 Z M 453 469 L 453 475 L 448 475 Q 446 481 453 479 L 453 497 L 454 499 L 459 501 Q 464 502 466 499 L 465 495 L 460 496 L 457 493 L 457 479 L 465 479 L 465 475 L 457 475 L 457 471 L 453 469 Z M 192 475 L 186 478 L 183 487 L 186 497 L 195 501 Q 204 502 207 497 L 205 493 L 200 496 L 194 496 L 190 494 L 188 490 L 208 489 L 207 481 Q 204 473 192 475 Z M 220 475 L 216 477 L 211 485 Q 210 492 213 496 Q 216 500 223 501 Q 229 502 232 499 L 235 496 L 233 493 Q 228 493 228 496 L 220 495 L 216 490 Q 215 483 218 481 L 223 479 Q 230 478 232 483 L 234 482 L 235 480 Q 232 473 220 475 Z M 245 475 L 243 476 L 237 483 Q 235 491 238 495 Q 241 500 249 501 Q 257 501 260 497 L 259 493 L 254 496 Q 244 497 242 492 L 243 489 L 262 489 L 259 479 Q 255 473 245 475 Z M 267 475 L 267 500 L 272 500 L 272 484 L 278 479 L 283 480 L 285 484 L 285 500 L 290 500 L 290 485 L 291 483 L 296 479 Q 302 478 303 483 L 303 500 L 308 500 L 308 482 L 306 478 L 303 475 Q 292 473 289 478 L 284 475 Q 275 473 273 477 Q 270 478 271 475 L 267 475 Z M 353 475 L 347 478 L 344 487 L 347 497 L 356 501 Q 365 502 368 497 L 366 493 L 361 496 L 355 496 L 351 494 L 349 490 L 369 489 L 368 481 Q 365 473 353 475 Z M 375 475 L 375 500 L 379 500 Q 378 488 381 481 L 387 479 L 388 479 L 388 475 L 381 476 L 379 477 L 379 475 L 375 475 Z M 503 494 L 500 495 L 501 501 L 500 504 Q 498 509 504 507 L 506 501 L 506 495 L 503 494 Z " /><path fill="rgb(255,255,255)" stroke="rgb(255,255,255)" stroke-width="1" opacity="1" d="M 762.5 353 Q 769.9 354.1 773 359.5 L 774 368.5 L 771 374 Q 768 376.7 761.5 377 L 754 372.5 L 751 365.5 L 752 360.5 L 755.5 356 L 762.5 353 Z " /><path fill="rgb(255,255,255)" stroke="rgb(255,255,255)" stroke-width="1" opacity="1" d="M 309 354 L 320.5 354 L 326 357 Q 329.1 360.6 328 369.5 L 324.5 374 L 320.5 376 L 309 376 L 309 354 Z " /><path fill="rgb(255,255,255)" stroke="rgb(255,255,255)" stroke-width="1" opacity="1" d="M 272 358 Q 275 356.8 274 360.5 L 278 368.5 L 268.5 369 L 269 367.5 L 272 358 Z " /><path fill="rgb(255,255,255)" stroke="rgb(255,255,255)" stroke-width="1" opacity="1" d="M 153 471 L 167.5 472 L 174 477.5 Q 176.3 480.7 175 487.5 L 172 493 L 165.5 496 L 153 496 L 153 471 Z " /><path fill="rgb(255,255,255)" stroke="rgb(255,255,255)" stroke-width="1" opacity="1" d="M 559.5 471 Q 565.9 471.1 568 475.5 L 570 485.5 Q 568.9 492.9 563.5 496 L 558.5 496 L 554 491.5 L 552 481.5 Q 552.9 474.9 557.5 472 L 559.5 471 Z " /><path fill="rgb(255,255,255)" stroke="rgb(255,255,255)" stroke-width="1" opacity="1" d="M 193.5 479 Q 201.4 478.1 203 483.5 L 202.5 485 L 189 485 L 190 481 L 193.5 479 Z " /><path fill="rgb(255,255,255)" stroke="rgb(255,255,255)" stroke-width="1" opacity="1" d="M 247.5 479 Q 253.3 478.2 255 481.5 L 256 485 L 242.5 485 L 242 483.5 L 247.5 479 Z " /><path fill="rgb(255,255,255)" stroke="rgb(255,255,255)" stroke-width="1" opacity="1" d="M 326.5 479 Q 334.4 478.1 336 483.5 L 337 489.5 L 331.5 496 Q 322.5 497.5 321 491.5 L 320 486.5 L 324.5 480 L 326.5 479 Z " /><path fill="rgb(255,255,255)" stroke="rgb(255,255,255)" stroke-width="1" opacity="1" d="M 354.5 479 Q 362.4 478.1 364 483.5 L 363.5 485 L 350 485 L 351 481 L 354.5 479 Z " /></svg>